<?xml version="1.0" standalone="no"?>
<!DOCTYPE svg PUBLIC "-//W3C//DTD SVG 1.1//EN" "http://www.w3.org/Graphics/SVG/1.1/DTD/svg11.dtd" >
<svg xmlns="http://www.w3.org/2000/svg">
<metadata>
This is a custom SVG webfont generated by Font Squirrel.
Copyright   : 2009 Mike Abbink published by FSI FontShop International GmbH
Designer    : Mike Abbink
Foundry     : FSI
Foundry URL : httpwwwfontfontcom
</metadata>
<defs>
<font id="KievitComp-BoldRegular" horiz-adv-x="1116" >
<font-face units-per-em="2048" ascent="1556" descent="-492" />
<missing-glyph horiz-adv-x="397" />
<glyph unicode=" "  horiz-adv-x="397" />
<glyph unicode="&#x09;" horiz-adv-x="397" />
<glyph unicode="&#xa0;" horiz-adv-x="397" />
<glyph unicode="!" horiz-adv-x="622" d="M137 150q0 68 49.5 116.5t124.5 48.5q74 0 123 -49t49 -116q0 -70 -49 -120t-123 -50q-76 0 -125 50t-49 120zM152 1364h319l-51 -903h-219z" />
<glyph unicode="&#x22;" horiz-adv-x="788" d="M74 1364h270l-29 -500h-184zM444 1364h271l-58 -500h-182z" />
<glyph unicode="#" horiz-adv-x="1161" d="M31 381l35 203h217l32 211h-219l33 200h217l57 369h185l-56 -369h201l58 369h186l-55 -369h206l-34 -200h-203l-33 -211h207l-33 -203h-205l-57 -381h-184l57 381h-205l-57 -381h-184l57 381h-223zM465 578h211l33 223h-211z" />
<glyph unicode="$" horiz-adv-x="1056" d="M63 111l121 198q10 -8 34 -24.5t57.5 -32.5t78.5 -29.5t101 -15.5v366q-16 6 -31.5 13.5t-32.5 17.5q-63 31 -116.5 67t-92.5 84t-61.5 109.5t-22.5 145.5q0 147 92.5 242.5t233.5 123.5v230h217v-224q119 -12 189.5 -47t107.5 -61l-115 -201q-31 18 -87 44t-128 36v-342 l17 -8q68 -31 131 -66t111 -82t78 -113.5t30 -160.5q0 -154 -88 -254t-246 -135v-234h-217v219q-70 6 -127 20.5t-102 34t-78.5 41.5t-53.5 38zM369 1014q0 -45 22.5 -76t63.5 -53v254q-41 -16 -63.5 -48t-22.5 -77zM608 231q43 23 67.5 57t24.5 79t-25.5 76.5t-66.5 56.5 v-269z" />
<glyph unicode="%" horiz-adv-x="1777" d="M47 1030q0 68 23.5 132.5t70.5 113.5t118 79.5t165 30.5t166 -28.5t119 -76.5t70.5 -111.5t23.5 -131.5q0 -70 -23.5 -134t-72 -114.5t-119 -81t-164.5 -30.5t-165 28.5t-118 78t-70.5 112.5t-23.5 133zM279 1038q0 -76 35.5 -133t111.5 -57q78 0 111.5 55t33.5 127 q0 74 -35.5 130.5t-111.5 56.5t-110.5 -51.5t-34.5 -127.5zM360 0l830 1364h225l-829 -1364h-226zM975 334q0 68 23.5 131t71.5 113.5t119 81t165 30.5t164.5 -28.5t117.5 -77.5t71 -112.5t24 -131.5q0 -70 -24 -134.5t-71 -114.5t-117.5 -80.5t-164.5 -30.5 q-96 0 -167 29.5t-118 78.5t-70.5 112.5t-23.5 133.5zM1206 340q0 -74 36 -132t114 -58t110.5 55t32.5 129q0 72 -36 128t-109 56q-78 0 -113 -51t-35 -127z" />
<glyph unicode="&#x26;" horiz-adv-x="1361" d="M66 354q0 137 70.5 226.5t209.5 167.5q-70 82 -105.5 154.5t-35.5 156.5q0 76 30.5 136t84 103t128 67t162.5 24q90 0 161 -24t120 -63.5t75.5 -96t26.5 -120.5q0 -115 -74.5 -197.5t-216.5 -166.5l250 -275q29 53 51.5 116t34.5 130l234 -41q-37 -215 -166 -385 l237 -266h-331l-88 98q-82 -59 -177.5 -91t-199.5 -32q-119 0 -209 29t-150.5 80t-91 120.5t-30.5 149.5zM348 375q0 -86 58.5 -136.5t160.5 -50.5q121 0 215 72l-299 330q-66 -45 -100.5 -96t-34.5 -119zM473 1065q0 -51 26.5 -99t80.5 -108q90 55 125.5 105.5t35.5 107.5 q0 53 -35.5 89t-95.5 36q-61 0 -99 -36t-38 -95z" />
<glyph unicode="'" horiz-adv-x="432" d="M78 1364h276l-45 -500h-186z" />
<glyph unicode="(" horiz-adv-x="710" d="M84 578q0 156 34 293t87 250.5t117.5 202.5t128.5 151h258q-51 -55 -109.5 -140.5t-108 -198t-82 -250.5t-32.5 -302q0 -158 26.5 -293t71.5 -250t105.5 -210t128.5 -175h-258q-63 68 -128 160t-118 206.5t-87 254t-34 301.5z" />
<glyph unicode=")" horiz-adv-x="712" d="M2 -344q57 68 117.5 156t107.5 199.5t78 248.5t31 301q0 160 -30 296t-78 251t-107.5 206t-118.5 161h260q66 -68 131.5 -159t117.5 -205t85 -250t33 -292q0 -162 -34 -301t-88 -254.5t-118.5 -205t-126.5 -152.5h-260z" />
<glyph unicode="*" horiz-adv-x="1009" d="M88 995l72 195l246 -96l-13 270h225l-14 -270l246 96l74 -195l-269 -75l181 -211l-181 -125l-149 233l-152 -233l-178 125l178 211z" />
<glyph unicode="+" horiz-adv-x="1187" d="M104 434v209h375v369h234v-369h370v-209h-370v-381h-234v381h-375z" />
<glyph unicode="," horiz-adv-x="581" d="M111 174q0 68 48 112t117 44q80 0 138.5 -59.5t58.5 -166.5q0 -104 -45 -211.5t-106 -189.5h-175q33 51 58.5 109.5t25.5 109.5q0 43 -18 68.5t-42 49t-42 53.5t-18 81z" />
<glyph unicode="-" horiz-adv-x="675" d="M104 467v221h467v-221h-467z" />
<glyph unicode="." horiz-adv-x="581" d="M109 156q0 74 53 124t129 50t128 -50.5t52 -123.5q0 -74 -52 -125t-128 -51t-129 51t-53 125z" />
<glyph unicode="/" horiz-adv-x="921" d="M86 0l494 1364h264l-494 -1364h-264z" />
<glyph unicode="0" d="M59 682q0 133 26 260t84 226.5t153.5 160t232.5 60.5q135 0 229.5 -60.5t154.5 -160t88 -226.5t28 -260t-28 -260t-88 -226.5t-154.5 -160t-227.5 -60.5q-135 0 -229.5 60.5t-154.5 160t-87 226.5t-27 260zM350 682q0 -111 10.5 -202t35 -154.5t63.5 -98t96 -34.5 t96 34.5t63.5 98t36 154.5t11.5 202t-11.5 202t-36 154.5t-63.5 98t-94 34.5q-57 0 -97 -34.5t-64.5 -98t-35 -154.5t-10.5 -202z" />
<glyph unicode="1" d="M119 1253l407 111h211v-1141h310v-223h-893v223h311v903l-291 -88z" />
<glyph unicode="2" d="M66 1212q70 68 176 122.5t266 54.5q111 0 195.5 -29t142 -81t87.5 -124t30 -156q0 -109 -42 -211t-112 -200.5t-160 -192.5t-186 -182q23 2 67.5 4t81.5 2h400v-219h-938v147q98 88 203.5 188.5t191.5 206t142.5 213t56.5 212.5q0 102 -54.5 151t-134.5 49 q-88 0 -159.5 -37.5t-124.5 -89.5z" />
<glyph unicode="3" d="M78 1243q27 25 68.5 50.5t96 47t121 35t144.5 13.5q203 0 316.5 -85t113.5 -227q0 -66 -26.5 -119t-68.5 -93t-95.5 -67.5t-106.5 -41.5v-4q61 -6 121.5 -32t110 -69t80 -103.5t30.5 -135.5q0 -100 -44 -181t-123 -137.5t-187.5 -87.5t-239.5 -31q-102 0 -179 13.5 t-116 25.5l47 215q31 -10 99.5 -22t144.5 -12q135 0 220 55t85 160q0 59 -29.5 99t-83 64.5t-128 36t-164.5 11.5v188q76 2 143.5 17.5t117.5 43t78.5 66.5t28.5 88q0 72 -56 107.5t-142 35.5q-41 0 -81 -9t-75 -23.5t-63.5 -32t-49.5 -35.5z" />
<glyph unicode="4" d="M23 266v185l634 913h256v-885h168v-213h-168v-266h-272v266h-618zM297 475q6 0 23.5 1t38 2t40.5 1h248v529h-4z" />
<glyph unicode="5" d="M121 2l43 219q10 -4 32.5 -8t52.5 -8t62.5 -7t63.5 -3q68 0 127 14t104 44t72 76t27 109q0 66 -28 110t-76 70.5t-114.5 38t-144.5 11.5q-49 0 -98 -3t-68 -8l41 707h733v-219h-487l-17 -266q115 -2 215.5 -28t174 -78t116.5 -131t43 -187q0 -117 -45 -206t-127 -149.5 t-196.5 -92.5t-251.5 -32q-86 0 -156.5 9.5t-97.5 17.5z" />
<glyph unicode="6" d="M68 575q0 182 57 333t164.5 257.5t264.5 165t355 58.5l58 -222q-111 0 -209.5 -21.5t-177 -68.5t-134 -125t-77.5 -190q47 41 112.5 63.5t145.5 22.5q88 0 164.5 -28.5t134 -84t90.5 -134.5t33 -177q0 -102 -37 -185t-100.5 -141.5t-151.5 -90.5t-189 -32 q-133 0 -228 50.5t-156.5 133.5t-90 191t-28.5 225zM350 545q0 -182 63.5 -271.5t161.5 -89.5q92 0 138.5 65.5t46.5 160.5q0 117 -52.5 174t-142.5 57q-72 0 -122 -21.5t-93 -60.5v-14z" />
<glyph unicode="7" d="M84 1137v227h946v-150l-608 -1267l-240 84l535 1106h-633z" />
<glyph unicode="8" d="M68 340q0 63 23.5 117.5t63.5 99.5t89 80t102 63q-49 29 -92 61t-75 71.5t-51 88t-19 107.5q0 80 35.5 146.5t97 114.5t143.5 74t176 26q100 0 183 -23t143.5 -66t93.5 -107.5t33 -145.5q0 -55 -21.5 -102.5t-58.5 -86.5t-83 -71.5t-95 -59.5q53 -27 105 -61.5t93 -80.5 t67 -103.5t26 -129.5q0 -90 -37 -159.5t-101.5 -117.5t-154.5 -74t-197 -26q-236 0 -362.5 100.5t-126.5 264.5zM346 350q0 -78 57.5 -124t153.5 -46q92 0 148.5 48t56.5 122q0 39 -19.5 74t-51.5 63.5t-74 54t-85 50.5q-33 -23 -66.5 -47.5t-60 -53t-43 -63.5t-16.5 -78z M387 1040q0 -35 15.5 -64.5t41 -55t58.5 -48t65 -41.5q33 20 64 43t55.5 47.5t38.5 53.5t14 59q0 66 -47 109t-125 43q-80 0 -130 -42.5t-50 -103.5z" />
<glyph unicode="9" d="M66 940q0 102 36.5 185t100 141.5t149.5 90.5t187 32q135 0 230 -49.5t155.5 -132.5t88 -191.5t27.5 -227.5q0 -184 -52 -336.5t-154.5 -261t-257 -168t-359.5 -59.5l-57 221q106 0 202.5 23.5t173 74t130 129t75.5 193.5q-49 -41 -112.5 -64.5t-143.5 -23.5 q-90 0 -165.5 28.5t-133 84t-89 134.5t-31.5 177zM356 954q0 -117 49.5 -174t141.5 -57q72 0 120 21.5t91 60.5v14q0 176 -59.5 268.5t-159.5 92.5q-92 0 -137.5 -66t-45.5 -160z" />
<glyph unicode=":" horiz-adv-x="585" d="M111 158q0 74 53 124t129 50t128 -50.5t52 -123.5q0 -76 -52 -127t-128 -51t-129 51t-53 127zM111 838q0 74 53 124t129 50t128 -50.5t52 -123.5q0 -76 -52 -127.5t-128 -51.5t-129 51.5t-53 127.5z" />
<glyph unicode=";" horiz-adv-x="585" d="M111 838q0 74 53 124t129 50t128 -50.5t52 -123.5q0 -76 -52 -127.5t-128 -51.5t-129 51.5t-53 127.5zM117 174q0 68 48 112t118 44q80 0 138 -59.5t58 -166.5q0 -109 -46 -215t-105 -186h-174q33 49 58.5 107.5t25.5 111.5q0 43 -18.5 68.5t-42 49t-42 53.5t-18.5 81z " />
<glyph unicode="&#x3c;" horiz-adv-x="1187" d="M215 508l524 475l146 -147l-355 -322l359 -315l-146 -158z" />
<glyph unicode="=" horiz-adv-x="1187" d="M184 244v209h820v-209h-820zM184 627v209h820v-209h-820z" />
<glyph unicode="&#x3e;" horiz-adv-x="1187" d="M297 827l147 156l527 -465l-525 -477l-143 149l354 320z" />
<glyph unicode="?" horiz-adv-x="845" d="M33 1317q53 29 131 50.5t188 21.5q109 0 190 -27t134 -75t78.5 -112.5t25.5 -138.5q0 -63 -17.5 -113.5t-45 -88t-62 -67.5t-67.5 -52q-33 -23 -60.5 -41.5t-47 -38t-30 -42t-10.5 -54.5v-82h-237v108q0 94 34.5 146.5t106.5 99.5q66 43 103.5 86t37.5 115 q0 78 -47 115.5t-135 37.5q-55 0 -98 -16t-78 -33zM150 150q0 68 49 116.5t125 48.5t124 -49t48 -116q0 -70 -48.5 -120t-123.5 -50q-76 0 -125 50t-49 120z" />
<glyph unicode="@" horiz-adv-x="1662" d="M94 494q0 152 57.5 296t161 255.5t246.5 180t315 68.5q178 0 313.5 -53t225.5 -142t136 -205t46 -241q0 -109 -29.5 -198.5t-85 -154t-132 -100.5t-168.5 -36q-111 0 -162 49t-60 127h-6q-39 -72 -107.5 -122t-162.5 -50q-49 0 -88 19.5t-65.5 52t-41 77.5t-14.5 95 q0 111 29.5 209t86 173.5t138.5 119.5t184 44q90 0 170 -18t133 -37l-59 -342q-6 -43 -11 -76.5t-5 -56.5q0 -41 19.5 -65.5t53.5 -24.5q82 0 141.5 80t59.5 221q0 117 -38 207t-108.5 152.5t-171 94t-223.5 31.5q-115 0 -219 -47t-183 -130t-125 -197.5t-46 -249.5 q0 -248 135 -388.5t404 -140.5q90 0 168.5 18.5t128.5 41.5l65 -162q-57 -23 -162.5 -46.5t-222.5 -23.5q-168 0 -301 52.5t-226 144.5t-143.5 219t-50.5 279zM698 453q0 -41 14.5 -71t53.5 -30q43 0 78 31t61.5 81t47 117.5t34.5 141.5l12 57q-16 6 -43.5 11.5t-52.5 5.5 q-49 0 -87 -29t-63.5 -77t-40 -109t-14.5 -129z" />
<glyph unicode="A" horiz-adv-x="1392" d="M31 0l520 1364h278l535 -1364h-315l-93 256h-544l-90 -256h-291zM492 487h382l-116 326q-33 88 -48.5 150.5t-25.5 85.5h-4q-8 -25 -25.5 -88.5t-46.5 -147.5z" />
<glyph unicode="B" horiz-adv-x="1232" d="M170 0v1364h455q94 0 180 -16.5t150.5 -56.5t102.5 -105.5t38 -161.5q0 -133 -65.5 -209t-176.5 -104v-4q61 -10 115.5 -35t95.5 -66t64.5 -97t23.5 -130q0 -104 -40 -177t-110.5 -117t-169 -64.5t-215.5 -20.5h-448zM455 221h151q125 0 189.5 42t64.5 140 q0 96 -57.5 144.5t-184.5 48.5h-163v-375zM455 803h133q117 0 170 42t53 134q0 164 -217 164h-139v-340z" />
<glyph unicode="C" horiz-adv-x="1265" d="M88 684q0 139 45 266t134 224.5t221.5 156t304.5 58.5q135 0 232 -28t177 -81l-129 -211q-57 37 -123.5 58.5t-161.5 21.5q-96 0 -169.5 -36t-123 -98.5t-75 -145.5t-25.5 -177q0 -98 24.5 -184t74 -150.5t124 -102.5t175.5 -38q111 0 183.5 32t125.5 73l119 -203 q-27 -25 -70 -49.5t-98.5 -46t-123 -35t-141.5 -13.5q-174 0 -305 58.5t-219 157t-132 226.5t-44 267z" />
<glyph unicode="D" horiz-adv-x="1445" d="M170 0v1364h412q201 0 348 -48t243.5 -136t142.5 -210t46 -270q0 -147 -47 -275t-144.5 -222t-247 -148.5t-352.5 -54.5h-401zM459 231h135q231 0 347 116t116 345t-115 335t-358 106h-125v-902z" />
<glyph unicode="E" horiz-adv-x="1085" d="M170 0v1364h786v-238h-501v-307h442v-225h-442v-356h516v-238h-801z" />
<glyph unicode="F" horiz-adv-x="1044" d="M170 0v1364h782v-238h-493v-333h434v-226h-434v-567h-289z" />
<glyph unicode="G" horiz-adv-x="1454" d="M88 684q0 139 49 266t144.5 224.5t233.5 156t316 58.5q154 0 261.5 -32t187.5 -91l-129 -215q-63 47 -141 72.5t-185 25.5q-109 0 -189.5 -35t-133.5 -96.5t-80 -144t-27 -181.5q0 -98 23.5 -185t75 -153.5t128 -104.5t185.5 -38q84 0 145.5 15.5t96.5 37.5v271h-252v223 h528v-652q-72 -49 -195.5 -90t-320.5 -41q-176 0 -310 58.5t-225.5 157t-138.5 226.5t-47 267z" />
<glyph unicode="H" horiz-adv-x="1525" d="M170 0v1364h289v-537h610v537h289v-1364h-289v590h-610v-590h-289z" />
<glyph unicode="I" horiz-adv-x="663" d="M182 0v1364h289v-1364h-289z" />
<glyph unicode="J" horiz-adv-x="677" d="M-84 -385l45 235q14 -6 41 -12t55 -6q86 0 123 46t37 157v1329h291v-1368q0 -205 -104.5 -309.5t-286.5 -104.5q-72 0 -120 10.5t-81 22.5z" />
<glyph unicode="K" horiz-adv-x="1290" d="M170 0v1364h287v-594l465 594h319l-502 -633l525 -731h-342l-465 653v-653h-287z" />
<glyph unicode="L" horiz-adv-x="1052" d="M174 0v1364h291v-1131h508v-233h-799z" />
<glyph unicode="M" horiz-adv-x="1806" d="M84 0l188 1364h281l274 -842q25 -74 42.5 -140.5t27.5 -94.5h4q8 29 27.5 95.5t44.5 139.5l282 842h279l188 -1364h-295l-88 705q-10 76 -16 126l-6 72h-4q-4 -23 -18.5 -75t-37.5 -119l-231 -709h-285l-231 707q-20 66 -34.5 120t-20.5 76h-4q-2 -23 -6.5 -78 t-12.5 -123l-88 -702h-260z" />
<glyph unicode="N" horiz-adv-x="1519" d="M168 0v1364h291l491 -707q61 -88 97 -150.5t47 -78.5h4q-2 14 -5 75.5t-3 139.5v721h262v-1364h-265l-530 758q-55 78 -87 131t-44 74h-4q2 -14 5 -65.5t3 -117.5v-780h-262z" />
<glyph unicode="O" horiz-adv-x="1583" d="M88 680q0 139 46 267t135 226.5t220.5 157t303.5 58.5t303 -58.5t220 -155t134 -223.5t45 -264q0 -139 -45 -268t-132 -227.5t-217 -158t-302 -59.5t-304.5 58.5t-222.5 156t-137 224.5t-47 266zM395 688q0 -96 23.5 -183t73 -152.5t124 -104.5t177.5 -39q102 0 176.5 38 t124 102.5t73 149.5t23.5 181q0 94 -22.5 181t-70.5 151.5t-122 103.5t-176 39t-178 -37t-126.5 -101.5t-75 -149.5t-24.5 -179z" />
<glyph unicode="P" horiz-adv-x="1210" d="M166 0v1364h448q111 0 207.5 -25.5t166 -79t109.5 -134.5t40 -191q0 -111 -39 -195t-112 -140t-175 -85t-229 -29h-125v-485h-291zM457 705h129q137 0 198.5 55t61.5 170q0 104 -59.5 158.5t-194.5 54.5h-135v-438z" />
<glyph unicode="Q" horiz-adv-x="1583" d="M88 680q0 139 46 267t135 226.5t220.5 157t303.5 58.5t303 -58.5t220 -155t134 -223.5t45 -264q0 -117 -31.5 -228.5t-95 -203.5t-158 -159.5t-219.5 -98.5q59 -78 117.5 -109.5t148.5 -31.5q59 0 100.5 19.5t63.5 35.5l92 -191q-31 -25 -99 -52t-169 -27 q-80 0 -152.5 16t-143 56t-142.5 107.5t-150 170.5q-137 20 -242.5 84.5t-178 157t-110.5 208t-38 238.5zM395 688q0 -96 23.5 -183t73 -152.5t124 -104.5t177.5 -39q102 0 176.5 38t124 102.5t73 149.5t23.5 181q0 94 -22.5 181t-70.5 151.5t-122 103.5t-176 39t-178 -37 t-126.5 -101.5t-75 -149.5t-24.5 -179z" />
<glyph unicode="R" horiz-adv-x="1269" d="M170 0v1364h455q242 0 372.5 -100.5t130.5 -292.5q0 -84 -26.5 -147.5t-70.5 -108.5t-101.5 -72t-118.5 -39v-4q29 -20 66.5 -64t93.5 -130l266 -406h-317l-250 389q-41 59 -66.5 93t-46 51.5t-38 22.5t-42.5 5h-18v-561h-289zM459 766h157q117 0 171.5 49t54.5 139 q0 94 -56.5 141.5t-181.5 47.5h-145v-377z" />
<glyph unicode="S" horiz-adv-x="1056" d="M63 111l123 200q12 -8 37 -25.5t62 -33.5t86 -29.5t108 -13.5q104 0 160.5 46t56.5 112q0 45 -25.5 76.5t-67.5 56t-97 48t-115 54.5q-63 31 -116.5 68t-92.5 84t-61.5 109.5t-22.5 146.5q0 88 35 157.5t94.5 118.5t139 76t172.5 27q84 0 148.5 -12.5t113.5 -30t81.5 -37 t55.5 -35.5l-117 -203q-18 12 -44.5 26.5t-61.5 27t-76 21.5t-84 9q-84 0 -133 -36t-49 -105q0 -41 19.5 -68.5t53 -50.5t79.5 -43.5t100 -44.5q68 -31 131 -65.5t111 -84t78 -116t30 -160.5q0 -92 -34 -168t-97.5 -128t-154.5 -81t-204 -29q-84 0 -151.5 14.5t-119.5 35 t-90 44.5t-61 42z" />
<glyph unicode="T" horiz-adv-x="1099" d="M29 1126v238h1042v-238h-375v-1126h-290v1126h-377z" />
<glyph unicode="U" horiz-adv-x="1464" d="M162 528v836h289v-811q0 -176 68.5 -258t230.5 -82q154 0 220 86t66 236v829h267v-809q0 -281 -139.5 -430.5t-420.5 -149.5q-297 0 -439 142.5t-142 410.5z" />
<glyph unicode="V" horiz-adv-x="1361" d="M27 1364h311l287 -817q29 -78 47 -143.5t22 -84.5h4q6 18 25.5 84t44.5 144l276 817h291l-508 -1364h-274z" />
<glyph unicode="W" horiz-adv-x="1871" d="M35 1364h307l172 -713q10 -41 19.5 -84t15.5 -79.5t10 -60.5t4 -26h4q0 2 6.5 27t13.5 62.5t17 82.5t21 86l186 705h285l182 -700q10 -43 20.5 -88.5t17.5 -83t12 -62t5 -27.5h4q0 2 4.5 26t10.5 60.5t15 80.5t19 85l177 709h276l-373 -1364h-266l-196 756 q-10 41 -20.5 85t-19 80.5t-12.5 61.5t-4 27h-4q0 -2 -6 -25.5t-14.5 -60.5t-18.5 -81t-22 -87l-215 -756h-267z" />
<glyph unicode="X" horiz-adv-x="1261" d="M39 0l432 700l-412 664h328l258 -426l242 426h291l-394 -659l439 -705h-328l-287 471l-276 -471h-293z" />
<glyph unicode="Y" horiz-adv-x="1224" d="M23 1364h321l289 -580h2l287 580h280l-438 -850v-514h-289v514z" />
<glyph unicode="Z" horiz-adv-x="1169" d="M94 0v188l625 940h-598v236h948v-184l-631 -944h649v-236h-993z" />
<glyph unicode="[" horiz-adv-x="698" d="M133 -330v1805h512v-203h-252v-1399h252v-203h-512z" />
<glyph unicode="\" horiz-adv-x="921" d="M2 1475h264l652 -1805h-265z" />
<glyph unicode="]" horiz-adv-x="698" d="M53 -127h252v1399h-252v203h512v-1805h-512v203z" />
<glyph unicode="^" horiz-adv-x="1196" d="M90 590l412 774h190l412 -774h-250l-256 493l-256 -493h-252z" />
<glyph unicode="_" horiz-adv-x="886" d="M-2 -166h891v-211h-891v211z" />
<glyph unicode="`" horiz-adv-x="1024" d="M260 1384h350l170 -276h-233z" />
<glyph unicode="a" horiz-adv-x="1028" d="M68 256q0 98 46 165.5t120.5 109.5t171 60.5t194.5 18.5h35v58q0 72 -36 105.5t-126 33.5q-82 0 -145.5 -29.5t-108.5 -64.5l-119 166q59 55 160.5 99t243.5 44q205 0 303 -85t98 -284v-358q0 -102 9.5 -175t19.5 -120h-268q-6 18 -10.5 51t-6.5 55q-41 -49 -111.5 -90 t-168.5 -41q-63 0 -118.5 18.5t-95.5 54.5t-63.5 88t-23.5 120zM330 279q0 -55 36.5 -80t84.5 -25q63 0 107 25.5t77 62.5v180h-35q-121 0 -195.5 -37.5t-74.5 -125.5z" />
<glyph unicode="b" horiz-adv-x="1132" d="M129 55v1420h272v-555q39 39 102.5 70.5t141.5 31.5q94 0 172 -33t134.5 -97.5t87 -160.5t30.5 -225q0 -127 -41 -226.5t-111.5 -167t-168 -102.5t-209.5 -35q-152 0 -255.5 26.5t-154.5 53.5zM401 211q23 -10 55.5 -16.5t82.5 -6.5q115 0 178 82t63 236q0 141 -50 221 t-161 80q-55 0 -100 -25.5t-68 -50.5v-520z" />
<glyph unicode="c" horiz-adv-x="937" d="M61 498q0 125 40 223t110 164.5t166 101.5t209 35q123 0 196.5 -28.5t108.5 -51.5l-88 -186q-35 23 -84 41t-125 18q-121 0 -182.5 -85t-61.5 -224q0 -70 15.5 -128.5t46 -101.5t78 -66.5t110.5 -23.5q86 0 139.5 23.5t75.5 38.5l84 -182q-18 -12 -45 -27.5t-65.5 -29 t-91 -24t-119.5 -10.5q-121 0 -216.5 38t-162 107.5t-102.5 165t-36 212.5z" />
<glyph unicode="d" horiz-adv-x="1140" d="M63 496q0 119 34 216t93.5 166.5t141.5 106.5t178 37q80 0 138.5 -20.5t92.5 -49.5v523h273v-1190q0 -92 9 -164t19 -121h-268q-6 18 -12 52t-8 57q-51 -61 -119 -98.5t-162 -37.5q-188 0 -299 135.5t-111 387.5zM352 496q0 -143 49.5 -223t153.5 -80q59 0 108.5 30.5 t77.5 69.5v450q-33 29 -73.5 47.5t-100.5 18.5q-104 0 -159.5 -83t-55.5 -230z" />
<glyph unicode="e" horiz-adv-x="1062" d="M61 504q0 119 38 214t104.5 162.5t157 104.5t194.5 37q213 0 323.5 -128t110.5 -364q0 -23 -1 -46t-3 -48h-631q10 -111 69.5 -184.5t184.5 -73.5q102 0 162.5 25.5t97.5 44.5l88 -176q-25 -14 -57.5 -30.5t-76.5 -31t-103.5 -25t-134.5 -10.5q-125 0 -222.5 38 t-164 107.5t-101.5 167t-35 216.5zM350 621h373q0 43 -10.5 79.5t-29.5 64.5t-52 44t-80 16q-88 0 -136.5 -53t-64.5 -151z" />
<glyph unicode="f" horiz-adv-x="747" d="M35 795v202h149v103q0 180 100.5 289.5t293.5 109.5q111 0 167 -18.5t74 -28.5l-63 -205q-12 6 -47 17.5t-91 11.5q-162 0 -161 -197v-82h237v-202h-237v-795h-273v795h-149z" />
<glyph unicode="g" horiz-adv-x="1099" d="M59 -223q0 84 47.5 143.5t120.5 99.5q-41 25 -64.5 62t-23.5 90q0 70 33 115t78 73q-86 47 -131 124t-45 175q0 80 30.5 147.5t87 115t138.5 74t186 26.5q100 0 178 -25h363v-178h-137q41 -72 41 -160q0 -160 -110 -260t-321 -100q-31 0 -60.5 2t-57.5 6q-37 -23 -37 -57 q0 -41 46 -53.5t154 -18.5q78 -4 161 -11t151.5 -36t112.5 -89t44 -171q0 -80 -38.5 -145.5t-111.5 -113.5t-173 -74.5t-223 -26.5q-207 0 -323 65.5t-116 200.5zM319 -172q0 -59 45.5 -97t149.5 -38q125 0 192.5 42t67.5 105q0 39 -17.5 60.5t-48 32t-74.5 13.5t-99 7 q-35 4 -70 6t-68 8q-78 -55 -78 -139zM338 659q0 -86 47 -135t133 -49t133 49t47 135q0 88 -47 136.5t-133 48.5t-133 -48.5t-47 -136.5z" />
<glyph unicode="h" horiz-adv-x="1138" d="M129 0v1475h272v-598q18 20 47 45.5t67 47t87 37t111 15.5q82 0 139 -24.5t92 -67.5t51.5 -102.5t16.5 -129.5v-698h-273v643q0 76 -29.5 114t-101.5 38q-41 0 -74.5 -15.5t-60.5 -37t-45 -42t-27 -30.5v-670h-272z" />
<glyph unicode="i" horiz-adv-x="573" d="M121 1290q0 66 47 113t119 47t120 -47t48 -113t-48.5 -115t-119.5 -49q-72 0 -119 49t-47 115zM150 0v997h274v-997h-274z" />
<glyph unicode="j" horiz-adv-x="563" d="M-102 -453l47 211q10 -4 28.5 -8t49.5 -4q72 0 97 48t25 165v1038h275v-1067q0 -92 -18.5 -167.5t-60.5 -129t-107.5 -82t-157.5 -28.5q-76 0 -118 8t-60 16zM115 1290q0 66 47 113t119 47q74 0 121 -47t47 -113t-47.5 -115t-120.5 -49q-72 0 -119 49t-47 115z" />
<glyph unicode="k" horiz-adv-x="1058" d="M129 0v1475h272v-881l330 403h297l-369 -444l377 -553h-315l-320 487v-487h-272z" />
<glyph unicode="l" horiz-adv-x="563" d="M145 0v1475h273v-1475h-273z" />
<glyph unicode="m" horiz-adv-x="1685" d="M133 0v997h266v-123q18 20 45 47t64 48.5t84 37t106 15.5q106 0 167 -43t89 -115q63 72 137 115t183 43q80 0 134 -24.5t88 -67.5t48.5 -102.5t14.5 -129.5v-698h-273v643q0 74 -25.5 113t-93.5 39q-31 0 -58.5 -11.5t-51 -28t-43 -36t-33.5 -37.5v-682h-272v643 q0 76 -28 114t-89 38q-37 0 -68.5 -15.5t-55.5 -36t-39 -41t-23 -30.5v-672h-273z" />
<glyph unicode="n" horiz-adv-x="1140" d="M133 0v997h266v-125q53 63 131 106.5t187 43.5q82 0 138 -24.5t92 -67.5t52.5 -102.5t16.5 -129.5v-698h-273v643q0 76 -29.5 114t-103.5 38q-33 0 -63.5 -11.5t-56 -30t-48 -41t-36.5 -42.5v-670h-273z" />
<glyph unicode="o" horiz-adv-x="1126" d="M61 496q0 96 29 190t89.5 169t154.5 121t225 46t226.5 -45t158 -118t92 -166t29.5 -189q0 -94 -29.5 -188.5t-91 -170t-157 -123t-226.5 -47.5t-225 45.5t-155.5 119t-90.5 167t-29 189.5zM350 504q0 -70 12.5 -129.5t38 -102.5t66.5 -66.5t98 -23.5q117 0 164 86t47 228 q0 70 -12 129t-40 102t-70 67.5t-99 24.5t-96 -23.5t-63.5 -64.5t-35 -99t-10.5 -128z" />
<glyph unicode="p" horiz-adv-x="1144" d="M133 -446v1443h266v-104q41 51 107.5 90t169.5 39q190 0 297.5 -135t107.5 -387q0 -119 -32.5 -215.5t-92 -165t-141.5 -106.5t-180 -38q-92 0 -147.5 25t-81.5 47v-493h-273zM406 254q27 -23 66.5 -45.5t105.5 -22.5q104 0 159.5 83t55.5 231q0 141 -49.5 223t-149.5 82 q-39 0 -69.5 -12.5t-55.5 -28.5t-40 -33.5t-23 -28.5v-448z" />
<glyph unicode="q" horiz-adv-x="1134" d="M68 492q0 127 41 226t112.5 166.5t167.5 102.5t209 35q86 0 154.5 -8t119 -20.5t84 -25t52.5 -20.5v-1394h-273v526q-37 -39 -98.5 -72t-144.5 -33q-94 0 -172 33t-134.5 97.5t-87 162t-30.5 224.5zM354 492q0 -141 51.5 -221.5t161.5 -80.5q33 0 60.5 9.5t49 21.5 t37 24.5t21.5 20.5v520q-14 4 -47 13.5t-88 9.5q-117 0 -181.5 -81.5t-64.5 -235.5z" />
<glyph unicode="r" horiz-adv-x="798" d="M133 0v997h273v-135q16 27 39.5 55.5t54 52t70.5 38t87 14.5q55 0 87 -8t49 -19l-66 -237q-12 8 -36.5 15t-67.5 7q-45 0 -81 -17.5t-63.5 -42t-46 -50t-26.5 -41.5v-629h-273z" />
<glyph unicode="s" horiz-adv-x="860" d="M53 70l92 190q14 -10 39 -24.5t57.5 -26.5t70.5 -21.5t79 -9.5q78 0 121 22.5t43 67.5q0 25 -19.5 43.5t-53 33.5t-80 33.5t-99.5 43.5q-104 49 -163.5 114.5t-59.5 180.5q0 141 101.5 223t271.5 82q129 0 206.5 -29.5t112.5 -50.5l-96 -186q-29 18 -85 40.5t-128 22.5 t-104.5 -23.5t-32.5 -64.5q0 -25 15 -42t43 -31.5t65.5 -28t80.5 -29.5q59 -25 109.5 -52.5t86.5 -62t56.5 -81t20.5 -109.5q0 -158 -104.5 -239t-290.5 -81q-135 0 -221.5 32t-133.5 63z" />
<glyph unicode="t" horiz-adv-x="792" d="M39 795v202h160v289h270v-289h233v-202h-233v-455q0 -74 21.5 -107.5t78.5 -33.5q45 0 80 13t51 24l64 -203q-31 -16 -93.5 -37t-156.5 -21q-176 0 -245.5 84t-69.5 228v508h-160z" />
<glyph unicode="u" horiz-adv-x="1140" d="M125 299v698h272v-643q0 -76 30 -113.5t103 -37.5q39 0 73 16.5t60.5 36.5t45 40.5t26.5 31.5v669h273v-710q0 -96 8 -169t18 -118h-268q-6 20 -12 61t-9 72q-20 -25 -48.5 -53.5t-68.5 -51t-91.5 -38t-112.5 -15.5q-82 0 -139.5 25t-92 69t-51 103t-16.5 127z" />
<glyph unicode="v" horiz-adv-x="1038" d="M20 997h295l207 -659h4l213 659h277l-369 -997h-256z" />
<glyph unicode="w" horiz-adv-x="1521" d="M23 997h292l152 -635h4l170 635h252l170 -639h4l156 639h272l-285 -997h-245l-205 668h-4l-205 -668h-246z" />
<glyph unicode="x" horiz-adv-x="1046" d="M33 0l340 516l-328 481h307l180 -272l160 272h281l-309 -469l352 -528h-307l-207 319l-189 -319h-280z" />
<glyph unicode="y" horiz-adv-x="1058" d="M6 -461l39 215q10 -4 30.5 -7t65.5 -3q104 0 151.5 47t76.5 127l37 102l-375 977h291l225 -657h6l203 657h280l-411 -1103q-33 -88 -72 -158t-92 -117t-126 -72.5t-175 -25.5q-63 0 -100.5 7t-53.5 11z" />
<glyph unicode="z" horiz-adv-x="937" d="M80 0v147l434 646h-414v204h746v-157l-432 -635h436v-205h-770z" />
<glyph unicode="{" horiz-adv-x="831" d="M53 481v205q233 6 234 207v330q0 66 20.5 112.5t55 77.5t78.5 46.5t91 15.5h244v-203h-127q-63 0 -82.5 -37t-19.5 -102v-299q0 -111 -53.5 -166.5t-133.5 -77.5v-4q82 -27 134.5 -85.5t52.5 -172.5v-318q0 -72 18.5 -104.5t83.5 -32.5h127v-203h-246q-45 0 -88 15.5 t-77.5 47t-56 79t-21.5 112.5v350q0 96 -56.5 149.5t-177.5 57.5z" />
<glyph unicode="|" horiz-adv-x="585" d="M174 -512v2048h240v-2048h-240z" />
<glyph unicode="}" horiz-adv-x="831" d="M53 -127h127q66 0 85.5 37t19.5 102v322q0 111 52 166t134 78v4q-84 27 -135 85t-51 173v295q0 72 -18.5 104.5t-84.5 32.5h-129v203h248q45 0 88 -15.5t78 -47.5t56.5 -80t21.5 -111v-328q0 -96 55 -149.5t178 -57.5v-205q-121 -4 -177 -55t-56 -152v-352 q0 -66 -21.5 -113t-55.5 -77.5t-79 -46t-90 -15.5h-246v203z" />
<glyph unicode="~" horiz-adv-x="1198" d="M78 535q20 20 51 45.5t71 47t89 37t106 15.5q70 0 118 -18.5t92 -41t91 -41t115 -18.5q59 0 108.5 27.5t77.5 56.5l123 -160q-23 -25 -54.5 -50t-72.5 -46.5t-90 -36t-104 -14.5q-76 0 -128.5 18.5t-95.5 41t-87 41t-105 18.5q-70 0 -113 -30t-69 -54z" />
<glyph unicode="&#xa1;" horiz-adv-x="610" d="M139 854q0 70 48.5 119t123.5 49q76 0 124 -49t48 -119q0 -68 -48 -117t-124 -49t-124 49t-48 117zM152 -360l51 901h217l51 -901h-319z" />
<glyph unicode="&#xa2;" horiz-adv-x="937" d="M61 498q0 205 99.5 334t259.5 169v226h227v-207q96 -8 154.5 -32.5t89.5 -45.5l-88 -186q-35 23 -84 41t-125 18q-121 0 -182.5 -85t-61.5 -224q0 -70 15.5 -128.5t46 -101.5t78 -66.5t110.5 -23.5q86 0 139.5 23.5t75.5 38.5l84 -182q-31 -20 -89 -48t-163 -38v-232 h-227v246q-172 43 -265.5 178.5t-93.5 325.5z" />
<glyph unicode="&#xa3;" horiz-adv-x="1050" d="M127 551v199h172q-10 53 -17.5 112.5t-7.5 126.5q0 178 115 289t330 111q111 0 180.5 -25t112.5 -51l-109 -191q-29 16 -68.5 31.5t-107.5 15.5q-86 0 -127 -52t-41 -150q0 -57 6 -110.5t17 -106.5h297v-199h-271v-29q0 -113 -42 -191.5t-87 -113.5h479v-217h-827v174 q104 53 151.5 147.5t47.5 192.5v18q0 8 -2 19h-201z" />
<glyph unicode="&#xa4;" horiz-adv-x="1273" d="M127 141l162 203q-37 53 -55.5 115.5t-18.5 128.5q0 68 20.5 132t61.5 118l-164 206l197 152l159 -215q35 12 74 19.5t82 7.5q78 0 139 -23l158 211l199 -152l-156 -194q47 -53 69.5 -123t22.5 -139q0 -72 -21.5 -138.5t-64.5 -121.5l148 -187l-199 -151l-145 198 q-72 -23 -150 -22q-96 0 -166 31l-153 -207zM467 588q0 -80 47 -134.5t131 -54.5q86 0 132 54.5t46 134.5q0 82 -48 135t-130 53q-80 0 -129 -54t-49 -134z" />
<glyph unicode="&#xa5;" horiz-adv-x="1193" d="M8 1364h322l286 -586h5l286 586h281l-359 -692h254v-189h-333v-118h333v-191h-333v-174h-289v174h-332v191h332v118h-332v189h248z" />
<glyph unicode="&#xa6;" horiz-adv-x="493" d="M123 262h239v-774h-239v774zM123 782v754h239v-754h-239z" />
<glyph unicode="&#xa7;" horiz-adv-x="952" d="M80 680q0 98 48 166.5t110 107.5q-29 43 -49.5 94.5t-20.5 112.5q0 80 29.5 142.5t80 105.5t117 66.5t142.5 23.5q117 0 183 -25.5t103 -52.5l-100 -178q-20 14 -55 31.5t-101 17.5q-63 0 -95 -34.5t-32 -86.5q0 -45 32 -89t80 -90t103.5 -97t103.5 -109.5t79.5 -127 t31.5 -150.5q0 -49 -13 -90t-34.5 -75t-48 -60.5t-53.5 -46.5q29 -41 49.5 -91.5t20.5 -105.5q0 -90 -33 -156.5t-88.5 -109.5t-127 -63.5t-149.5 -20.5q-106 0 -174.5 23.5t-103.5 45.5l84 197q23 -16 63.5 -33.5t99.5 -17.5q74 0 114 36.5t40 96.5q0 43 -32.5 85t-81 86 t-104.5 93t-104.5 106.5t-81 125t-32.5 147.5zM338 698q0 -35 23.5 -74.5t58.5 -80.5t74 -80l71 -72q20 20 32.5 46t12.5 61t-24.5 74.5t-59 80.5t-76.5 80t-75 72q-18 -16 -27.5 -41t-9.5 -66z" />
<glyph unicode="&#xa8;" horiz-adv-x="1024" d="M145 1257q0 59 43 102.5t109 43.5t109 -43t43 -103q0 -61 -43.5 -104t-108.5 -43q-66 0 -109 43t-43 104zM575 1257q0 59 43.5 102.5t108.5 43.5q66 0 109 -43t43 -103q0 -61 -43 -104t-109 -43t-109 43t-43 104z" />
<glyph unicode="&#xa9;" horiz-adv-x="1712" d="M92 735q0 158 60.5 297t164 242.5t241.5 164t296 60.5t297 -60.5t242.5 -164t164 -242.5t60.5 -297t-60.5 -297t-164 -242.5t-242.5 -164t-297 -60.5t-296 60.5t-241.5 164t-164 242.5t-60.5 297zM260 735q0 -137 45 -248.5t124 -191.5t187.5 -123t237.5 -43t238.5 43 t188.5 123t124 191.5t45 248.5q0 135 -45 247t-124 191.5t-188.5 123.5t-238.5 44t-237.5 -44t-187.5 -123.5t-124 -191.5t-45 -247zM418 735q0 98 34.5 182t96 145.5t144.5 96.5t179 35q57 0 104.5 -10t84.5 -26.5t65.5 -36t49.5 -38.5l-109 -153q-27 20 -71 44.5 t-117 24.5q-55 0 -98.5 -20.5t-74 -56t-47 -82.5t-16.5 -101q0 -59 18.5 -109t50 -87t75.5 -57.5t98 -20.5q78 0 128 32.5t79 57.5l102 -147q-20 -18 -50 -41t-70 -43.5t-91 -34t-115 -13.5q-96 0 -179 35t-143.5 96.5t-94 145.5t-33.5 182z" />
<glyph unicode="&#xaa;" horiz-adv-x="772" d="M47 844q0 61 26.5 105t67.5 75q55 39 135 54.5t177 15.5v34q0 47 -21.5 72t-87.5 25t-112 -24.5t-70 -43.5l-92 129q16 14 43.5 32.5t64.5 34t84 26t105 10.5q154 0 226.5 -62.5t72.5 -204.5v-252q0 -72 7 -123t17 -90h-211q-4 12 -8 32t-6 36q-29 -29 -76 -57.5 t-113 -28.5q-98 0 -163.5 53.5t-65.5 151.5zM250 860q0 -70 82 -69q49 0 77.5 19t43.5 36v121q-66 0 -109 -8.5t-70 -34.5q-24 -25 -24 -64z" />
<glyph unicode="&#xab;" horiz-adv-x="1103" d="M66 502l245 395h279l-244 -395l244 -393h-279zM520 502l246 395h278l-243 -395l243 -393h-278z" />
<glyph unicode="&#xac;" horiz-adv-x="1187" d="M43 440v211h1100v-590h-219v379h-881z" />
<glyph unicode="&#xad;" horiz-adv-x="675" d="M104 467v221h467v-221h-467z" />
<glyph unicode="&#xae;" horiz-adv-x="1712" d="M92 735q0 158 60.5 297t164 242.5t241.5 164t296 60.5t297 -60.5t242.5 -164t164 -242.5t60.5 -297t-60.5 -297t-164 -242.5t-242.5 -164t-297 -60.5t-296 60.5t-241.5 164t-164 242.5t-60.5 297zM260 735q0 -137 45 -248.5t124 -191.5t187.5 -123t237.5 -43t238.5 43 t188.5 123t124 191.5t45 248.5q0 135 -45 247t-124 191.5t-188.5 123.5t-238.5 44t-237.5 -44t-187.5 -123.5t-124 -191.5t-45 -247zM563 319v855h303q150 0 227.5 -68t77.5 -182q0 -102 -56 -156.5t-140 -71.5q20 -16 44.5 -44.5t57.5 -82.5l154 -250h-211l-162 271 q-29 47 -49.5 63.5t-54.5 16.5v-351h-191zM754 801h77q61 0 104.5 23.5t43.5 88.5q0 53 -30.5 84t-102.5 31h-92v-227z" />
<glyph unicode="&#xaf;" horiz-adv-x="1024" d="M221 1151v195h580v-195h-580z" />
<glyph unicode="&#xb0;" horiz-adv-x="708" d="M61 1100q0 61 24 113.5t63.5 91t93 61.5t112.5 23t112.5 -23t93.5 -61.5t63.5 -91t23.5 -113.5q0 -59 -22.5 -111.5t-62.5 -91.5t-93 -61.5t-115 -22.5q-59 0 -112.5 22.5t-93 61.5t-63.5 91.5t-24 111.5zM229 1100q0 -57 35 -95t90 -38t90 37.5t35 95.5q0 59 -34.5 97 t-90.5 38q-55 0 -90 -38t-35 -97z" />
<glyph unicode="&#xb1;" horiz-adv-x="1187" d="M102 434v209h377v369h234v-369h370v-209h-370v-381h-234v381h-377zM131 -100h928v-211h-928v211z" />
<glyph unicode="&#xb2;" horiz-adv-x="702" d="M33 1282q47 39 115.5 67.5t166.5 28.5q141 0 210 -61.5t69 -153.5q0 -49 -20.5 -92t-54.5 -84t-78 -78t-89 -73q10 4 40 5t59 1h174v-164h-574v110q59 45 116.5 90.5t101.5 89.5t72 87t28 84t-23.5 58t-58.5 17q-43 0 -83 -18t-71 -47z" />
<glyph unicode="&#xb3;" horiz-adv-x="659" d="M41 690l41 154q20 -8 56 -14.5t71 -6.5q59 0 100 15.5t41 50.5q0 39 -49 56.5t-139 19.5v122q82 4 126 26t44 56q0 51 -78 52q-37 0 -75 -14.5t-58 -28.5l-76 131q37 25 105.5 47t152.5 22q117 0 181.5 -43t64.5 -118q0 -35 -13.5 -62t-35 -45t-47 -31.5t-52.5 -19.5v-2 q29 -4 60 -14.5t56.5 -31t41.5 -50t16 -70.5q0 -106 -94 -165.5t-264 -59.5q-59 0 -106 7t-70 17z" />
<glyph unicode="&#xb4;" horiz-adv-x="1024" d="M297 1108l170 276h352l-287 -276h-235z" />
<glyph unicode="&#xb5;" horiz-adv-x="1138" d="M125 -446v1443h272v-649q0 -66 24.5 -105.5t96.5 -39.5q37 0 71 13t61.5 32.5t49 41t35.5 38.5v669h273v-714q0 -90 7 -165t17 -118h-268q-6 18 -12.5 60t-8.5 73q-18 -20 -42.5 -45t-56.5 -46.5t-72 -37.5t-89 -20q-25 -2 -50 1t-44 11h-6q4 -20 6 -73.5t2 -131.5v-237 h-266z" />
<glyph unicode="&#xb6;" horiz-adv-x="1355" d="M78 938q0 96 32.5 175t90 134.5t134.5 86t163 30.5h788v-213h-153v-1513h-236v1513h-160v-1513h-239v878q-86 0 -163 29.5t-134.5 85t-90 133.5t-32.5 174z" />
<glyph unicode="&#xb7;" horiz-adv-x="528" d="M84 594q0 74 52 125t128 51t128 -51t52 -125t-52 -125t-128 -51t-128 51t-52 125z" />
<glyph unicode="&#xb8;" horiz-adv-x="1011" d="M301 -440l35 123q16 -8 43 -15.5t61 -7.5q45 0 72 17.5t27 52.5q0 27 -13.5 42t-34 24t-46 11.5t-52.5 -0.5l74 199h156l-43 -119q63 -14 104 -57t41 -111q0 -86 -70.5 -138t-185.5 -52q-66 0 -107 10.5t-61 20.5z" />
<glyph unicode="&#xb9;" horiz-adv-x="585" d="M25 1311l247 53h158v-686h-211v508l-149 -37z" />
<glyph unicode="&#xba;" horiz-adv-x="839" d="M53 1012q0 72 21.5 140.5t66.5 120.5t114 84t163 32q92 0 160.5 -31t114.5 -82t69.5 -118.5t23.5 -139.5t-22.5 -140.5t-67.5 -122t-114.5 -85t-161.5 -31.5q-94 0 -163 30.5t-114 83t-67.5 120t-22.5 139.5zM281 1018q0 -98 31.5 -159.5t109.5 -61.5t107.5 58t29.5 157 q0 98 -33.5 159.5t-111.5 61.5t-105.5 -58.5t-27.5 -156.5z" />
<glyph unicode="&#xbb;" horiz-adv-x="1103" d="M57 109l246 395l-246 393h279l246 -393l-246 -395h-279zM514 109l244 395l-244 393h277l247 -393l-247 -395h-277z" />
<glyph unicode="&#xbc;" horiz-adv-x="1525" d="M25 1311l247 53h158v-686h-211v508l-149 -37zM197 0l835 1364h217l-837 -1364h-215zM819 127v127l359 432h200v-407h107v-152h-107v-127h-211v127h-348zM1018 274q14 2 37.5 3.5t50.5 1.5h68v186h-3z" />
<glyph unicode="&#xbd;" horiz-adv-x="1568" d="M25 1311l247 53h158v-686h-211v508l-149 -37zM197 0l835 1364h217l-837 -1364h-215zM897 602q47 41 115.5 68.5t167.5 27.5q141 0 210.5 -60t69.5 -155q0 -47 -21.5 -91t-55 -84t-77.5 -77.5t-89 -72.5q10 2 40.5 3t57.5 1h174v-162h-574v111q59 45 117 90t103 89 t72.5 86t27.5 85q0 39 -24.5 56.5t-59.5 17.5q-43 0 -82 -17.5t-72 -46.5z" />
<glyph unicode="&#xbe;" horiz-adv-x="1601" d="M41 690l41 154q20 -8 56 -14.5t71 -6.5q59 0 100 15.5t41 50.5q0 39 -49 56.5t-139 19.5v122q82 4 126 26t44 56q0 51 -78 52q-37 0 -75 -14.5t-58 -28.5l-76 131q37 25 105.5 47t152.5 22q117 0 181.5 -43t64.5 -118q0 -35 -13.5 -62t-35 -45t-47 -31.5t-52.5 -19.5v-2 q29 -4 60 -14.5t56.5 -31t41.5 -50t16 -70.5q0 -106 -94 -165.5t-264 -59.5q-59 0 -106 7t-70 17zM270 0l838 1364h217l-838 -1364h-217zM895 127v127l358 432h199v-407h109v-152h-109v-127h-209v127h-348zM1094 274q14 2 36.5 3.5t49.5 1.5h69v186h-2z" />
<glyph unicode="&#xbf;" horiz-adv-x="841" d="M66 -33q0 63 17 112.5t45 87.5t61.5 67.5t68.5 52.5q33 23 59.5 41t46 37.5t31 43t11.5 56.5v82h237v-111q0 -94 -35 -146t-106 -97q-68 -45 -105 -87.5t-37 -115.5q0 -152 181 -152q61 0 104 16.5t72 30.5l94 -200q-45 -23 -121 -46.5t-198 -23.5q-109 0 -189 26.5 t-133 74.5t-78.5 112.5t-25.5 138.5zM350 854q0 70 48 119t124 49t124 -49t48 -119q0 -68 -48 -117t-124 -49t-124 49t-48 117z" />
<glyph unicode="&#xc0;" horiz-adv-x="1392" d="M31 0l520 1364h278l535 -1364h-315l-93 256h-544l-90 -256h-291zM492 487h382l-116 326q-33 88 -48.5 150.5t-25.5 85.5h-4q-8 -25 -25.5 -88.5t-46.5 -147.5zM299 1744h350l170 -276h-233z" />
<glyph unicode="&#xc1;" horiz-adv-x="1392" d="M31 0l520 1364h278l535 -1364h-315l-93 256h-544l-90 -256h-291zM492 487h382l-116 326q-33 88 -48.5 150.5t-25.5 85.5h-4q-8 -25 -25.5 -88.5t-46.5 -147.5zM547 1468l170 276h352l-287 -276h-235z" />
<glyph unicode="&#xc2;" horiz-adv-x="1392" d="M31 0l520 1364h278l535 -1364h-315l-93 256h-544l-90 -256h-291zM492 487h382l-116 326q-33 88 -48.5 150.5t-25.5 85.5h-4q-8 -25 -25.5 -88.5t-46.5 -147.5zM320 1470l260 326h208l256 -326h-231l-131 135l-131 -135h-231z" />
<glyph unicode="&#xc3;" horiz-adv-x="1392" d="M31 0l520 1364h278l535 -1364h-315l-93 256h-544l-90 -256h-291zM492 487h382l-116 326q-33 88 -48.5 150.5t-25.5 85.5h-4q-8 -25 -25.5 -88.5t-46.5 -147.5zM326 1597q14 25 36.5 52.5t52 50t65.5 37t77 14.5q47 0 79 -11.5t57.5 -25t50 -24.5t55.5 -11q43 0 71.5 23.5 t42.5 39.5l125 -108q-16 -27 -38.5 -54.5t-52 -50t-65.5 -37t-79 -14.5q-47 0 -78 11.5t-57.5 24.5t-51 24.5t-55.5 11.5q-37 0 -65.5 -22.5t-44.5 -39.5z" />
<glyph unicode="&#xc4;" horiz-adv-x="1392" d="M31 0l520 1364h278l535 -1364h-315l-93 256h-544l-90 -256h-291zM492 487h382l-116 326q-33 88 -48.5 150.5t-25.5 85.5h-4q-8 -25 -25.5 -88.5t-46.5 -147.5zM315 1617q0 59 43 102.5t109 43.5t109 -43t43 -103q0 -61 -43.5 -104t-108.5 -43q-66 0 -109 43t-43 104z M745 1617q0 59 43.5 102.5t108.5 43.5q66 0 109 -43t43 -103q0 -61 -43 -104t-109 -43t-109 43t-43 104z" />
<glyph unicode="&#xc5;" horiz-adv-x="1392" d="M31 0l520 1364h278l535 -1364h-315l-93 256h-544l-90 -256h-291zM492 487h382l-116 326q-33 88 -48.5 150.5t-25.5 85.5h-4q-8 -25 -25.5 -88.5t-46.5 -147.5zM457 1663q0 45 18.5 85t50 69.5t72.5 46t84 16.5t84 -16.5t72.5 -46t50 -69.5t18.5 -85q0 -47 -18.5 -87 t-50 -69.5t-72.5 -46t-84 -16.5t-84 16.5t-72.5 46t-50 69.5t-18.5 87zM588 1663q0 -41 24.5 -72.5t69.5 -31.5t69.5 31.5t24.5 72.5t-24.5 71.5t-69.5 30.5t-69.5 -30.5t-24.5 -71.5z" />
<glyph unicode="&#xc6;" horiz-adv-x="1759" d="M-47 0l774 1364h901v-238h-502v-307h443v-225h-443v-356h516v-238h-800v289h-420l-158 -289h-311zM541 514h301v551z" />
<glyph unicode="&#xc7;" horiz-adv-x="1265" d="M88 684q0 139 45 266t134 224.5t221.5 156t304.5 58.5q135 0 232 -28t177 -81l-129 -211q-57 37 -123.5 58.5t-161.5 21.5q-96 0 -169.5 -36t-123 -98.5t-75 -145.5t-25.5 -177q0 -98 24.5 -184t74 -150.5t124 -102.5t175.5 -38q111 0 183.5 32t125.5 73l119 -203 q-27 -25 -70 -49.5t-98.5 -46t-123 -35t-141.5 -13.5h-2l-30 -88q63 -14 104 -57t41 -111q0 -86 -70.5 -138t-185.5 -52q-66 0 -106.5 10t-61.5 21l35 123q16 -8 43 -15.5t61 -7.5q45 0 72 17.5t27 52.5q0 27 -13.5 42t-34 24t-46 11.5t-52.5 -0.5l68 183q-137 25 -239.5 89 t-171 158.5t-103.5 209t-35 237.5z" />
<glyph unicode="&#xc8;" horiz-adv-x="1085" d="M170 0v1364h786v-238h-501v-307h442v-225h-442v-356h516v-238h-801zM184 1744h350l170 -276h-233z" />
<glyph unicode="&#xc9;" horiz-adv-x="1085" d="M170 0v1364h786v-238h-501v-307h442v-225h-442v-356h516v-238h-801zM426 1468l170 276h352l-287 -276h-235z" />
<glyph unicode="&#xca;" horiz-adv-x="1085" d="M170 0v1364h786v-238h-501v-307h442v-225h-442v-356h516v-238h-801zM199 1470l260 326h208l256 -326h-231l-131 135l-131 -135h-231z" />
<glyph unicode="&#xcb;" horiz-adv-x="1085" d="M170 0v1364h786v-238h-501v-307h442v-225h-442v-356h516v-238h-801zM194 1617q0 59 43 102.5t109 43.5t109 -43t43 -103q0 -61 -43.5 -104t-108.5 -43q-66 0 -109 43t-43 104zM624 1617q0 59 43.5 102.5t108.5 43.5q66 0 109 -43t43 -103q0 -61 -43 -104t-109 -43 t-109 43t-43 104z" />
<glyph unicode="&#xcc;" horiz-adv-x="663" d="M182 0v1364h289v-1364h-289zM-53 1744h350l170 -276h-233z" />
<glyph unicode="&#xcd;" horiz-adv-x="663" d="M182 0v1364h289v-1364h-289zM195 1468l170 276h352l-287 -276h-235z" />
<glyph unicode="&#xce;" horiz-adv-x="663" d="M182 0v1364h289v-1364h-289zM-32 1470l260 326h208l256 -326h-231l-131 135l-131 -135h-231z" />
<glyph unicode="&#xcf;" horiz-adv-x="663" d="M182 0v1364h289v-1364h-289zM-37 1617q0 59 43 102.5t109 43.5t109 -43t43 -103q0 -61 -43.5 -104t-108.5 -43q-66 0 -109 43t-43 104zM393 1617q0 59 43.5 102.5t108.5 43.5q66 0 109 -43t43 -103q0 -61 -43 -104t-109 -43t-109 43t-43 104z" />
<glyph unicode="&#xd0;" horiz-adv-x="1435" d="M37 592v203h133v569h412q201 0 348 -48t243.5 -136t142.5 -210t46 -270q0 -147 -47 -275t-144.5 -222t-247 -148.5t-352.5 -54.5h-401v592h-133zM459 231h135q231 0 347 116t116 345t-115 335t-358 106h-125v-338h215v-203h-215v-361z" />
<glyph unicode="&#xd1;" horiz-adv-x="1519" d="M168 0v1364h291l491 -707q61 -88 97 -150.5t47 -78.5h4q-2 14 -5 75.5t-3 139.5v721h262v-1364h-265l-530 758q-55 78 -87 131t-44 74h-4q2 -14 5 -65.5t3 -117.5v-780h-262zM402 1597q14 25 36.5 52.5t52 50t65.5 37t77 14.5q47 0 79 -11.5t57.5 -25t50 -24.5t55.5 -11 q43 0 71.5 23.5t42.5 39.5l125 -108q-16 -27 -38.5 -54.5t-52 -50t-65.5 -37t-79 -14.5q-47 0 -78 11.5t-57.5 24.5t-51 24.5t-55.5 11.5q-37 0 -65.5 -22.5t-44.5 -39.5z" />
<glyph unicode="&#xd2;" horiz-adv-x="1583" d="M88 680q0 139 46 267t135 226.5t220.5 157t303.5 58.5t303 -58.5t220 -155t134 -223.5t45 -264q0 -139 -45 -268t-132 -227.5t-217 -158t-302 -59.5t-304.5 58.5t-222.5 156t-137 224.5t-47 266zM395 688q0 -96 23.5 -183t73 -152.5t124 -104.5t177.5 -39q102 0 176.5 38 t124 102.5t73 149.5t23.5 181q0 94 -22.5 181t-70.5 151.5t-122 103.5t-176 39t-178 -37t-126.5 -101.5t-75 -149.5t-24.5 -179zM410 1744h350l170 -276h-233z" />
<glyph unicode="&#xd3;" horiz-adv-x="1583" d="M88 680q0 139 46 267t135 226.5t220.5 157t303.5 58.5t303 -58.5t220 -155t134 -223.5t45 -264q0 -139 -45 -268t-132 -227.5t-217 -158t-302 -59.5t-304.5 58.5t-222.5 156t-137 224.5t-47 266zM395 688q0 -96 23.5 -183t73 -152.5t124 -104.5t177.5 -39q102 0 176.5 38 t124 102.5t73 149.5t23.5 181q0 94 -22.5 181t-70.5 151.5t-122 103.5t-176 39t-178 -37t-126.5 -101.5t-75 -149.5t-24.5 -179zM655 1468l170 276h352l-287 -276h-235z" />
<glyph unicode="&#xd4;" horiz-adv-x="1583" d="M88 680q0 139 46 267t135 226.5t220.5 157t303.5 58.5t303 -58.5t220 -155t134 -223.5t45 -264q0 -139 -45 -268t-132 -227.5t-217 -158t-302 -59.5t-304.5 58.5t-222.5 156t-137 224.5t-47 266zM395 688q0 -96 23.5 -183t73 -152.5t124 -104.5t177.5 -39q102 0 176.5 38 t124 102.5t73 149.5t23.5 181q0 94 -22.5 181t-70.5 151.5t-122 103.5t-176 39t-178 -37t-126.5 -101.5t-75 -149.5t-24.5 -179zM429 1470l260 326h208l256 -326h-231l-131 135l-131 -135h-231z" />
<glyph unicode="&#xd5;" horiz-adv-x="1583" d="M88 680q0 139 46 267t135 226.5t220.5 157t303.5 58.5t303 -58.5t220 -155t134 -223.5t45 -264q0 -139 -45 -268t-132 -227.5t-217 -158t-302 -59.5t-304.5 58.5t-222.5 156t-137 224.5t-47 266zM395 688q0 -96 23.5 -183t73 -152.5t124 -104.5t177.5 -39q102 0 176.5 38 t124 102.5t73 149.5t23.5 181q0 94 -22.5 181t-70.5 151.5t-122 103.5t-176 39t-178 -37t-126.5 -101.5t-75 -149.5t-24.5 -179zM435 1597q14 25 36.5 52.5t52 50t65.5 37t77 14.5q47 0 79 -11.5t57.5 -25t50 -24.5t55.5 -11q43 0 71.5 23.5t42.5 39.5l125 -108 q-16 -27 -38.5 -54.5t-52 -50t-65.5 -37t-79 -14.5q-47 0 -78 11.5t-57.5 24.5t-51 24.5t-55.5 11.5q-37 0 -65.5 -22.5t-44.5 -39.5z" />
<glyph unicode="&#xd6;" horiz-adv-x="1583" d="M88 680q0 139 46 267t135 226.5t220.5 157t303.5 58.5t303 -58.5t220 -155t134 -223.5t45 -264q0 -139 -45 -268t-132 -227.5t-217 -158t-302 -59.5t-304.5 58.5t-222.5 156t-137 224.5t-47 266zM395 688q0 -96 23.5 -183t73 -152.5t124 -104.5t177.5 -39q102 0 176.5 38 t124 102.5t73 149.5t23.5 181q0 94 -22.5 181t-70.5 151.5t-122 103.5t-176 39t-178 -37t-126.5 -101.5t-75 -149.5t-24.5 -179zM424 1617q0 59 43 102.5t109 43.5t109 -43t43 -103q0 -61 -43.5 -104t-108.5 -43q-66 0 -109 43t-43 104zM854 1617q0 59 43.5 102.5 t108.5 43.5q66 0 109 -43t43 -103q0 -61 -43 -104t-109 -43t-109 43t-43 104z" />
<glyph unicode="&#xd7;" horiz-adv-x="1187" d="M182 791l160 159l248 -245l244 243l157 -157l-243 -244l256 -256l-162 -160l-256 254l-246 -244l-156 156l246 246z" />
<glyph unicode="&#xd8;" horiz-adv-x="1583" d="M88 680q0 139 46 267t135 226.5t220.5 157t303.5 58.5q96 0 178 -18.5t153 -53.5l131 184l172 -123l-131 -184q98 -98 148.5 -229t50.5 -277q0 -139 -45 -268t-132 -227.5t-217 -158t-302 -59.5q-92 0 -172 17.5t-150 48.5l-139 -193l-170 121l135 189 q-106 100 -160.5 235t-54.5 287zM395 688q0 -88 18.5 -167t59.5 -142l514 731q-41 23 -87 34t-101 11q-102 0 -178 -37t-126.5 -101.5t-75 -149.5t-24.5 -179zM612 250q78 -41 181 -41q102 0 176.5 38t124 102.5t73 149.5t23.5 181q0 80 -15.5 154.5t-50.5 134.5z" />
<glyph unicode="&#xd9;" horiz-adv-x="1464" d="M162 528v836h289v-811q0 -176 68.5 -258t230.5 -82q154 0 220 86t66 236v829h267v-809q0 -281 -139.5 -430.5t-420.5 -149.5q-297 0 -439 142.5t-142 410.5zM348 1744h350l170 -276h-233z" />
<glyph unicode="&#xda;" horiz-adv-x="1464" d="M162 528v836h289v-811q0 -176 68.5 -258t230.5 -82q154 0 220 86t66 236v829h267v-809q0 -281 -139.5 -430.5t-420.5 -149.5q-297 0 -439 142.5t-142 410.5zM596 1468l170 276h352l-287 -276h-235z" />
<glyph unicode="&#xdb;" horiz-adv-x="1464" d="M162 528v836h289v-811q0 -176 68.5 -258t230.5 -82q154 0 220 86t66 236v829h267v-809q0 -281 -139.5 -430.5t-420.5 -149.5q-297 0 -439 142.5t-142 410.5zM369 1470l260 326h208l256 -326h-231l-131 135l-131 -135h-231z" />
<glyph unicode="&#xdc;" horiz-adv-x="1464" d="M162 528v836h289v-811q0 -176 68.5 -258t230.5 -82q154 0 220 86t66 236v829h267v-809q0 -281 -139.5 -430.5t-420.5 -149.5q-297 0 -439 142.5t-142 410.5zM364 1617q0 59 43 102.5t109 43.5t109 -43t43 -103q0 -61 -43.5 -104t-108.5 -43q-66 0 -109 43t-43 104z M794 1617q0 59 43.5 102.5t108.5 43.5q66 0 109 -43t43 -103q0 -61 -43 -104t-109 -43t-109 43t-43 104z" />
<glyph unicode="&#xdd;" horiz-adv-x="1224" d="M23 1364h321l289 -580h2l287 580h280l-438 -850v-514h-289v514zM483 1468l170 276h352l-287 -276h-235z" />
<glyph unicode="&#xde;" horiz-adv-x="1224" d="M166 0v1364h291v-221h157q111 0 207.5 -26.5t166 -80t109.5 -134.5t40 -189q0 -111 -39 -196t-112 -141.5t-175 -85t-229 -28.5h-125v-262h-291zM457 483h129q137 0 198.5 55.5t61.5 168.5q0 104 -59.5 159.5t-194.5 55.5h-135v-439z" />
<glyph unicode="&#xdf;" horiz-adv-x="1185" d="M135 0v1018q0 127 38 218t101.5 149.5t148.5 86t181 27.5q106 0 186 -29.5t133.5 -80t81 -117t27.5 -139.5q0 -92 -39 -146.5t-84 -93.5q-25 -25 -48 -44.5t-42.5 -37.5t-31 -37.5t-11.5 -44.5q0 -45 42 -73.5t116 -73.5q37 -23 72.5 -48.5t64.5 -60.5t47.5 -82 t18.5 -110q0 -141 -94.5 -223.5t-268.5 -82.5q-117 0 -182.5 21.5t-104.5 44.5l78 195q27 -16 73 -37t103 -21q139 0 140 101q0 29 -15.5 50t-41 41.5t-59.5 40t-71 44.5q-63 39 -114.5 96t-51.5 147q0 51 14.5 88t36 66t47 51.5t50.5 44.5q35 35 59.5 72t24.5 100 q0 78 -38 122t-124 44q-92 0 -141 -66.5t-49 -205.5v-1014h-273z" />
<glyph unicode="&#xe0;" horiz-adv-x="1028" d="M68 256q0 98 46 165.5t120.5 109.5t171 60.5t194.5 18.5h35v58q0 72 -36 105.5t-126 33.5q-82 0 -145.5 -29.5t-108.5 -64.5l-119 166q59 55 160.5 99t243.5 44q205 0 303 -85t98 -284v-358q0 -102 9.5 -175t19.5 -120h-268q-6 18 -10.5 51t-6.5 55q-41 -49 -111.5 -90 t-168.5 -41q-63 0 -118.5 18.5t-95.5 54.5t-63.5 88t-23.5 120zM330 279q0 -55 36.5 -80t84.5 -25q63 0 107 25.5t77 62.5v180h-35q-121 0 -195.5 -37.5t-74.5 -125.5zM129 1384h350l170 -276h-233z" />
<glyph unicode="&#xe1;" horiz-adv-x="1028" d="M68 256q0 98 46 165.5t120.5 109.5t171 60.5t194.5 18.5h35v58q0 72 -36 105.5t-126 33.5q-82 0 -145.5 -29.5t-108.5 -64.5l-119 166q59 55 160.5 99t243.5 44q205 0 303 -85t98 -284v-358q0 -102 9.5 -175t19.5 -120h-268q-6 18 -10.5 51t-6.5 55q-41 -49 -111.5 -90 t-168.5 -41q-63 0 -118.5 18.5t-95.5 54.5t-63.5 88t-23.5 120zM330 279q0 -55 36.5 -80t84.5 -25q63 0 107 25.5t77 62.5v180h-35q-121 0 -195.5 -37.5t-74.5 -125.5zM373 1108l170 276h352l-287 -276h-235z" />
<glyph unicode="&#xe2;" horiz-adv-x="1028" d="M68 256q0 98 46 165.5t120.5 109.5t171 60.5t194.5 18.5h35v58q0 72 -36 105.5t-126 33.5q-82 0 -145.5 -29.5t-108.5 -64.5l-119 166q59 55 160.5 99t243.5 44q205 0 303 -85t98 -284v-358q0 -102 9.5 -175t19.5 -120h-268q-6 18 -10.5 51t-6.5 55q-41 -49 -111.5 -90 t-168.5 -41q-63 0 -118.5 18.5t-95.5 54.5t-63.5 88t-23.5 120zM330 279q0 -55 36.5 -80t84.5 -25q63 0 107 25.5t77 62.5v180h-35q-121 0 -195.5 -37.5t-74.5 -125.5zM150 1110l260 326h208l256 -326h-231l-131 135l-131 -135h-231z" />
<glyph unicode="&#xe3;" horiz-adv-x="1028" d="M68 256q0 98 46 165.5t120.5 109.5t171 60.5t194.5 18.5h35v58q0 72 -36 105.5t-126 33.5q-82 0 -145.5 -29.5t-108.5 -64.5l-119 166q59 55 160.5 99t243.5 44q205 0 303 -85t98 -284v-358q0 -102 9.5 -175t19.5 -120h-268q-6 18 -10.5 51t-6.5 55q-41 -49 -111.5 -90 t-168.5 -41q-63 0 -118.5 18.5t-95.5 54.5t-63.5 88t-23.5 120zM330 279q0 -55 36.5 -80t84.5 -25q63 0 107 25.5t77 62.5v180h-35q-121 0 -195.5 -37.5t-74.5 -125.5zM156 1237q14 25 36.5 52.5t52 50t65.5 37t77 14.5q47 0 79 -11.5t57.5 -25t50 -24.5t55.5 -11 q43 0 71.5 23.5t42.5 39.5l125 -108q-16 -27 -38.5 -54.5t-52 -50t-65.5 -37t-79 -14.5q-47 0 -78 11.5t-57.5 24.5t-51 24.5t-55.5 11.5q-37 0 -65.5 -22.5t-44.5 -39.5z" />
<glyph unicode="&#xe4;" horiz-adv-x="1028" d="M68 256q0 98 46 165.5t120.5 109.5t171 60.5t194.5 18.5h35v58q0 72 -36 105.5t-126 33.5q-82 0 -145.5 -29.5t-108.5 -64.5l-119 166q59 55 160.5 99t243.5 44q205 0 303 -85t98 -284v-358q0 -102 9.5 -175t19.5 -120h-268q-6 18 -10.5 51t-6.5 55q-41 -49 -111.5 -90 t-168.5 -41q-63 0 -118.5 18.5t-95.5 54.5t-63.5 88t-23.5 120zM330 279q0 -55 36.5 -80t84.5 -25q63 0 107 25.5t77 62.5v180h-35q-121 0 -195.5 -37.5t-74.5 -125.5zM145 1257q0 59 43 102.5t109 43.5t109 -43t43 -103q0 -61 -43.5 -104t-108.5 -43q-66 0 -109 43t-43 104 zM575 1257q0 59 43.5 102.5t108.5 43.5q66 0 109 -43t43 -103q0 -61 -43 -104t-109 -43t-109 43t-43 104z" />
<glyph unicode="&#xe5;" horiz-adv-x="1028" d="M68 256q0 98 46 165.5t120.5 109.5t171 60.5t194.5 18.5h35v58q0 72 -36 105.5t-126 33.5q-82 0 -145.5 -29.5t-108.5 -64.5l-119 166q59 55 160.5 99t243.5 44q205 0 303 -85t98 -284v-358q0 -102 9.5 -175t19.5 -120h-268q-6 18 -10.5 51t-6.5 55q-41 -49 -111.5 -90 t-168.5 -41q-63 0 -118.5 18.5t-95.5 54.5t-63.5 88t-23.5 120zM330 279q0 -55 36.5 -80t84.5 -25q63 0 107 25.5t77 62.5v180h-35q-121 0 -195.5 -37.5t-74.5 -125.5zM287 1323q0 45 18.5 85t50 69.5t72.5 46t84 16.5t84 -16.5t72.5 -46t50 -69.5t18.5 -85q0 -47 -18.5 -87 t-50 -69.5t-72.5 -46t-84 -16.5t-84 16.5t-72.5 46t-50 69.5t-18.5 87zM418 1323q0 -41 24.5 -72.5t69.5 -31.5t69.5 31.5t24.5 72.5t-24.5 71.5t-69.5 30.5t-69.5 -30.5t-24.5 -71.5z" />
<glyph unicode="&#xe6;" horiz-adv-x="1628" d="M68 256q0 98 46 165.5t120.5 109.5t171 60.5t194.5 18.5h39v58q0 66 -35 102.5t-131 36.5q-49 0 -89 -11.5t-72.5 -26.5t-55.5 -30.5t-37 -25.5l-119 166q23 20 59 44.5t86 46t114.5 37t144.5 15.5q219 0 309 -117q61 55 139 86t168 31q215 0 324.5 -130t109.5 -366 q0 -23 -1 -45t-3 -45h-632q6 -55 22 -102t47 -82t77 -54.5t110 -19.5q102 0 162.5 25.5t95.5 44.5l88 -176q-25 -14 -57.5 -30.5t-77 -31t-102.5 -25t-134 -10.5q-135 0 -236.5 46.5t-167.5 128.5q-29 -33 -67.5 -64t-85.5 -55.5t-103.5 -40t-119.5 -15.5t-118.5 18.5 t-95.5 54.5t-63.5 88t-23.5 120zM330 279q0 -55 36.5 -80t84.5 -25q78 0 131 36t84 81q-27 68 -33 151h-33q-121 0 -195.5 -37.5t-74.5 -125.5zM913 621h375q-4 86 -42 145t-130 59q-88 0 -137.5 -53t-65.5 -151z" />
<glyph unicode="&#xe7;" horiz-adv-x="937" d="M61 498q0 125 40 223t110 164.5t166 101.5t209 35q123 0 196.5 -28.5t108.5 -51.5l-88 -186q-35 23 -84 41t-125 18q-121 0 -182.5 -85t-61.5 -224q0 -70 15.5 -128.5t46 -101.5t78 -66.5t110.5 -23.5q86 0 139.5 23.5t75.5 38.5l84 -182q-18 -12 -45 -27.5t-65.5 -29 t-91 -24t-119.5 -10.5h-5l-30 -88q63 -14 104 -57t41 -111q0 -86 -70.5 -138t-185.5 -52q-66 0 -106.5 10t-61.5 21l35 123q16 -8 43 -15.5t61 -7.5q45 0 72 17.5t27 52.5q0 27 -13.5 42t-34 24t-46 11.5t-52.5 -0.5l68 187q-172 41 -267.5 176t-95.5 328z" />
<glyph unicode="&#xe8;" horiz-adv-x="1062" d="M61 504q0 119 38 214t104.5 162.5t157 104.5t194.5 37q213 0 323.5 -128t110.5 -364q0 -23 -1 -46t-3 -48h-631q10 -111 69.5 -184.5t184.5 -73.5q102 0 162.5 25.5t97.5 44.5l88 -176q-25 -14 -57.5 -30.5t-76.5 -31t-103.5 -25t-134.5 -10.5q-125 0 -222.5 38 t-164 107.5t-101.5 167t-35 216.5zM350 621h373q0 43 -10.5 79.5t-29.5 64.5t-52 44t-80 16q-88 0 -136.5 -53t-64.5 -151zM176 1384h350l170 -276h-233z" />
<glyph unicode="&#xe9;" horiz-adv-x="1062" d="M61 504q0 119 38 214t104.5 162.5t157 104.5t194.5 37q213 0 323.5 -128t110.5 -364q0 -23 -1 -46t-3 -48h-631q10 -111 69.5 -184.5t184.5 -73.5q102 0 162.5 25.5t97.5 44.5l88 -176q-25 -14 -57.5 -30.5t-76.5 -31t-103.5 -25t-134.5 -10.5q-125 0 -222.5 38 t-164 107.5t-101.5 167t-35 216.5zM350 621h373q0 43 -10.5 79.5t-29.5 64.5t-52 44t-80 16q-88 0 -136.5 -53t-64.5 -151zM418 1108l170 276h352l-287 -276h-235z" />
<glyph unicode="&#xea;" horiz-adv-x="1062" d="M61 504q0 119 38 214t104.5 162.5t157 104.5t194.5 37q213 0 323.5 -128t110.5 -364q0 -23 -1 -46t-3 -48h-631q10 -111 69.5 -184.5t184.5 -73.5q102 0 162.5 25.5t97.5 44.5l88 -176q-25 -14 -57.5 -30.5t-76.5 -31t-103.5 -25t-134.5 -10.5q-125 0 -222.5 38 t-164 107.5t-101.5 167t-35 216.5zM350 621h373q0 43 -10.5 79.5t-29.5 64.5t-52 44t-80 16q-88 0 -136.5 -53t-64.5 -151zM191 1110l260 326h208l256 -326h-231l-131 135l-131 -135h-231z" />
<glyph unicode="&#xeb;" horiz-adv-x="1062" d="M61 504q0 119 38 214t104.5 162.5t157 104.5t194.5 37q213 0 323.5 -128t110.5 -364q0 -23 -1 -46t-3 -48h-631q10 -111 69.5 -184.5t184.5 -73.5q102 0 162.5 25.5t97.5 44.5l88 -176q-25 -14 -57.5 -30.5t-76.5 -31t-103.5 -25t-134.5 -10.5q-125 0 -222.5 38 t-164 107.5t-101.5 167t-35 216.5zM350 621h373q0 43 -10.5 79.5t-29.5 64.5t-52 44t-80 16q-88 0 -136.5 -53t-64.5 -151zM186 1257q0 59 43 102.5t109 43.5t109 -43t43 -103q0 -61 -43.5 -104t-108.5 -43q-66 0 -109 43t-43 104zM616 1257q0 59 43.5 102.5t108.5 43.5 q66 0 109 -43t43 -103q0 -61 -43 -104t-109 -43t-109 43t-43 104z" />
<glyph unicode="&#xec;" horiz-adv-x="573" d="M150 0v997h274v-997h-274zM-92 1384h350l170 -276h-233z" />
<glyph unicode="&#xed;" horiz-adv-x="573" d="M150 0v997h274v-997h-274zM156 1108l170 276h352l-287 -276h-235z" />
<glyph unicode="&#xee;" horiz-adv-x="573" d="M150 0v997h274v-997h-274zM-71 1110l260 326h208l256 -326h-231l-131 135l-131 -135h-231z" />
<glyph unicode="&#xef;" horiz-adv-x="573" d="M150 0v997h274v-997h-274zM-76 1257q0 59 43 102.5t109 43.5t109 -43t43 -103q0 -61 -43.5 -104t-108.5 -43q-66 0 -109 43t-43 104zM354 1257q0 59 43.5 102.5t108.5 43.5q66 0 109 -43t43 -103q0 -61 -43 -104t-109 -43t-109 43t-43 104z" />
<glyph unicode="&#xf0;" horiz-adv-x="1144" d="M63 489q0 123 37 217.5t99.5 160t145.5 99t177 33.5q72 0 127.5 -20.5t91.5 -54.5q-49 168 -174 260l-137 -123l-106 110l88 80q-111 37 -256 37l55 211q221 0 395 -69l139 126l109 -112l-102 -92q160 -111 242.5 -296.5t82.5 -441.5q0 -137 -31.5 -253.5t-95 -202.5 t-161 -134.5t-226.5 -48.5q-104 0 -195.5 34t-159 100.5t-106.5 161.5t-39 218zM352 494q0 -145 55.5 -228.5t159.5 -83.5q109 0 166.5 100.5t57.5 329.5q0 14 -1.5 35t-1.5 33q-35 51 -90 83t-139 32q-104 0 -155.5 -82t-51.5 -219z" />
<glyph unicode="&#xf1;" horiz-adv-x="1140" d="M133 0v997h266v-125q53 63 131 106.5t187 43.5q82 0 138 -24.5t92 -67.5t52.5 -102.5t16.5 -129.5v-698h-273v643q0 76 -29.5 114t-103.5 38q-33 0 -63.5 -11.5t-56 -30t-48 -41t-36.5 -42.5v-670h-273zM207 1237q14 25 36.5 52.5t52 50t65.5 37t77 14.5q47 0 79 -11.5 t57.5 -25t50 -24.5t55.5 -11q43 0 71.5 23.5t42.5 39.5l125 -108q-16 -27 -38.5 -54.5t-52 -50t-65.5 -37t-79 -14.5q-47 0 -78 11.5t-57.5 24.5t-51 24.5t-55.5 11.5q-37 0 -65.5 -22.5t-44.5 -39.5z" />
<glyph unicode="&#xf2;" horiz-adv-x="1126" d="M61 496q0 96 29 190t89.5 169t154.5 121t225 46t226.5 -45t158 -118t92 -166t29.5 -189q0 -94 -29.5 -188.5t-91 -170t-157 -123t-226.5 -47.5t-225 45.5t-155.5 119t-90.5 167t-29 189.5zM350 504q0 -70 12.5 -129.5t38 -102.5t66.5 -66.5t98 -23.5q117 0 164 86t47 228 q0 70 -12 129t-40 102t-70 67.5t-99 24.5t-96 -23.5t-63.5 -64.5t-35 -99t-10.5 -128zM184 1384h350l170 -276h-233z" />
<glyph unicode="&#xf3;" horiz-adv-x="1126" d="M61 496q0 96 29 190t89.5 169t154.5 121t225 46t226.5 -45t158 -118t92 -166t29.5 -189q0 -94 -29.5 -188.5t-91 -170t-157 -123t-226.5 -47.5t-225 45.5t-155.5 119t-90.5 167t-29 189.5zM350 504q0 -70 12.5 -129.5t38 -102.5t66.5 -66.5t98 -23.5q117 0 164 86t47 228 q0 70 -12 129t-40 102t-70 67.5t-99 24.5t-96 -23.5t-63.5 -64.5t-35 -99t-10.5 -128zM428 1108l170 276h352l-287 -276h-235z" />
<glyph unicode="&#xf4;" horiz-adv-x="1126" d="M61 496q0 96 29 190t89.5 169t154.5 121t225 46t226.5 -45t158 -118t92 -166t29.5 -189q0 -94 -29.5 -188.5t-91 -170t-157 -123t-226.5 -47.5t-225 45.5t-155.5 119t-90.5 167t-29 189.5zM350 504q0 -70 12.5 -129.5t38 -102.5t66.5 -66.5t98 -23.5q117 0 164 86t47 228 q0 70 -12 129t-40 102t-70 67.5t-99 24.5t-96 -23.5t-63.5 -64.5t-35 -99t-10.5 -128zM201 1110l260 326h208l256 -326h-231l-131 135l-131 -135h-231z" />
<glyph unicode="&#xf5;" horiz-adv-x="1126" d="M61 496q0 96 29 190t89.5 169t154.5 121t225 46t226.5 -45t158 -118t92 -166t29.5 -189q0 -94 -29.5 -188.5t-91 -170t-157 -123t-226.5 -47.5t-225 45.5t-155.5 119t-90.5 167t-29 189.5zM350 504q0 -70 12.5 -129.5t38 -102.5t66.5 -66.5t98 -23.5q117 0 164 86t47 228 q0 70 -12 129t-40 102t-70 67.5t-99 24.5t-96 -23.5t-63.5 -64.5t-35 -99t-10.5 -128zM207 1237q14 25 36.5 52.5t52 50t65.5 37t77 14.5q47 0 79 -11.5t57.5 -25t50 -24.5t55.5 -11q43 0 71.5 23.5t42.5 39.5l125 -108q-16 -27 -38.5 -54.5t-52 -50t-65.5 -37t-79 -14.5 q-47 0 -78 11.5t-57.5 24.5t-51 24.5t-55.5 11.5q-37 0 -65.5 -22.5t-44.5 -39.5z" />
<glyph unicode="&#xf6;" horiz-adv-x="1126" d="M61 496q0 96 29 190t89.5 169t154.5 121t225 46t226.5 -45t158 -118t92 -166t29.5 -189q0 -94 -29.5 -188.5t-91 -170t-157 -123t-226.5 -47.5t-225 45.5t-155.5 119t-90.5 167t-29 189.5zM350 504q0 -70 12.5 -129.5t38 -102.5t66.5 -66.5t98 -23.5q117 0 164 86t47 228 q0 70 -12 129t-40 102t-70 67.5t-99 24.5t-96 -23.5t-63.5 -64.5t-35 -99t-10.5 -128zM196 1257q0 59 43 102.5t109 43.5t109 -43t43 -103q0 -61 -43.5 -104t-108.5 -43q-66 0 -109 43t-43 104zM626 1257q0 59 43.5 102.5t108.5 43.5q66 0 109 -43t43 -103q0 -61 -43 -104 t-109 -43t-109 43t-43 104z" />
<glyph unicode="&#xf7;" horiz-adv-x="1187" d="M90 440v205h1006v-205h-1006zM438 184q0 61 44 104.5t106 43.5q63 0 106 -43t43 -105q0 -61 -43 -104t-106 -43q-61 0 -105.5 43t-44.5 104zM438 899q0 61 44 104.5t106 43.5q63 0 106 -43t43 -105q0 -61 -43 -104t-106 -43q-61 0 -105.5 43t-44.5 104z" />
<glyph unicode="&#xf8;" horiz-adv-x="1126" d="M61 496q0 96 29 190t89.5 169t154.5 121t225 46q59 0 111.5 -10.5t99.5 -28.5l119 178l153 -100l-122 -178q74 -76 109.5 -175.5t35.5 -203.5q0 -94 -29.5 -188.5t-91 -170t-157 -123t-226.5 -47.5q-127 0 -227 45l-111 -157l-149 98l114 170q-66 74 -96.5 169.5 t-30.5 195.5zM340 504q0 -86 18 -150l297 445q-43 25 -100 24q-57 0 -98 -23.5t-66.5 -66.5t-38 -101t-12.5 -128zM449 209q53 -33 116 -33q57 0 99.5 23.5t69 66.5t38.5 101.5t12 128.5q0 47 -7 90t-19 80z" />
<glyph unicode="&#xf9;" horiz-adv-x="1140" d="M125 299v698h272v-643q0 -76 30 -113.5t103 -37.5q39 0 73 16.5t60.5 36.5t45 40.5t26.5 31.5v669h273v-710q0 -96 8 -169t18 -118h-268q-6 20 -12 61t-9 72q-20 -25 -48.5 -53.5t-68.5 -51t-91.5 -38t-112.5 -15.5q-82 0 -139.5 25t-92 69t-51 103t-16.5 127zM190 1384 h350l170 -276h-233z" />
<glyph unicode="&#xfa;" horiz-adv-x="1140" d="M125 299v698h272v-643q0 -76 30 -113.5t103 -37.5q39 0 73 16.5t60.5 36.5t45 40.5t26.5 31.5v669h273v-710q0 -96 8 -169t18 -118h-268q-6 20 -12 61t-9 72q-20 -25 -48.5 -53.5t-68.5 -51t-91.5 -38t-112.5 -15.5q-82 0 -139.5 25t-92 69t-51 103t-16.5 127zM434 1108 l170 276h352l-287 -276h-235z" />
<glyph unicode="&#xfb;" horiz-adv-x="1140" d="M125 299v698h272v-643q0 -76 30 -113.5t103 -37.5q39 0 73 16.5t60.5 36.5t45 40.5t26.5 31.5v669h273v-710q0 -96 8 -169t18 -118h-268q-6 20 -12 61t-9 72q-20 -25 -48.5 -53.5t-68.5 -51t-91.5 -38t-112.5 -15.5q-82 0 -139.5 25t-92 69t-51 103t-16.5 127zM207 1110 l260 326h208l256 -326h-231l-131 135l-131 -135h-231z" />
<glyph unicode="&#xfc;" horiz-adv-x="1140" d="M125 299v698h272v-643q0 -76 30 -113.5t103 -37.5q39 0 73 16.5t60.5 36.5t45 40.5t26.5 31.5v669h273v-710q0 -96 8 -169t18 -118h-268q-6 20 -12 61t-9 72q-20 -25 -48.5 -53.5t-68.5 -51t-91.5 -38t-112.5 -15.5q-82 0 -139.5 25t-92 69t-51 103t-16.5 127zM202 1257 q0 59 43 102.5t109 43.5t109 -43t43 -103q0 -61 -43.5 -104t-108.5 -43q-66 0 -109 43t-43 104zM632 1257q0 59 43.5 102.5t108.5 43.5q66 0 109 -43t43 -103q0 -61 -43 -104t-109 -43t-109 43t-43 104z" />
<glyph unicode="&#xfd;" horiz-adv-x="1058" d="M6 -461l39 215q10 -4 30.5 -7t65.5 -3q104 0 151.5 47t76.5 127l37 102l-375 977h291l225 -657h6l203 657h280l-411 -1103q-33 -88 -72 -158t-92 -117t-126 -72.5t-175 -25.5q-63 0 -100.5 7t-53.5 11zM403 1108l170 276h352l-287 -276h-235z" />
<glyph unicode="&#xfe;" horiz-adv-x="1144" d="M133 -449v1922h273v-574q45 53 108.5 88t161.5 35q190 0 297.5 -135t107.5 -387q0 -119 -32.5 -215.5t-92 -165t-141.5 -106.5t-180 -38q-84 0 -140.5 21.5t-88.5 50.5v-496h-273zM406 254q31 -29 71.5 -48.5t100.5 -19.5q104 0 159.5 83t55.5 231q0 141 -49.5 223 t-149.5 82q-61 0 -110.5 -32t-77.5 -71v-448z" />
<glyph unicode="&#xff;" horiz-adv-x="1058" d="M6 -461l39 215q10 -4 30.5 -7t65.5 -3q104 0 151.5 47t76.5 127l37 102l-375 977h291l225 -657h6l203 657h280l-411 -1103q-33 -88 -72 -158t-92 -117t-126 -72.5t-175 -25.5q-63 0 -100.5 7t-53.5 11zM172 1257q0 59 43 102.5t109 43.5t109 -43t43 -103 q0 -61 -43.5 -104t-108.5 -43q-66 0 -109 43t-43 104zM602 1257q0 59 43.5 102.5t108.5 43.5q66 0 109 -43t43 -103q0 -61 -43 -104t-109 -43t-109 43t-43 104z" />
<glyph unicode="&#x131;" horiz-adv-x="573" d="M150 0v997h274v-997h-274z" />
<glyph unicode="&#x152;" horiz-adv-x="1886" d="M76 680q0 139 45 267t134 226.5t220 157t303 58.5q53 0 106.5 -7.5t100.5 -17.5h772v-238h-502v-307h441v-225h-441v-356h517v-238h-773q-47 -10 -103 -17.5t-112 -7.5q-172 0 -304 58.5t-222 156t-136 224.5t-46 266zM381 688q0 -96 23.5 -183t72.5 -152.5t124 -104.5 t177 -39q61 0 108.5 9t86.5 26v874q-35 16 -82 26.5t-107 10.5q-102 0 -178 -37t-126 -101.5t-74.5 -149.5t-24.5 -179z" />
<glyph unicode="&#x153;" horiz-adv-x="1775" d="M61 496q0 96 29 190t89.5 169t154.5 121t225 46q123 0 211 -42t148 -114q63 74 151 115t195 41q215 0 324.5 -130t109.5 -366q0 -23 -1 -45t-3 -45h-633q10 -113 69.5 -185.5t184.5 -72.5q102 0 163.5 25.5t96.5 44.5l88 -176q-25 -14 -57.5 -30.5t-76.5 -31t-102.5 -25 t-134.5 -10.5q-125 0 -219 43t-158 115q-59 -72 -146 -115t-208 -43q-131 0 -225 45.5t-155.5 119t-90.5 167t-29 189.5zM350 504q0 -70 12.5 -129.5t38 -102.5t66.5 -66.5t98 -23.5q117 0 164 86t47 228q0 70 -12 129t-40 102t-70 67.5t-99 24.5t-96 -23.5t-63.5 -64.5 t-35 -99t-10.5 -128zM1059 621h373q-4 86 -42 145t-130 59q-88 0 -136.5 -53t-64.5 -151z" />
<glyph unicode="&#x178;" horiz-adv-x="1224" d="M23 1364h321l289 -580h2l287 580h280l-438 -850v-514h-289v514zM251 1617q0 59 43 102.5t109 43.5t109 -43t43 -103q0 -61 -43.5 -104t-108.5 -43q-66 0 -109 43t-43 104zM681 1617q0 59 43.5 102.5t108.5 43.5q66 0 109 -43t43 -103q0 -61 -43 -104t-109 -43t-109 43 t-43 104z" />
<glyph unicode="&#x2c6;" horiz-adv-x="1024" d="M150 1110l260 326h208l256 -326h-231l-131 135l-131 -135h-231z" />
<glyph unicode="&#x2da;" horiz-adv-x="1024" d="M287 1323q0 45 18.5 85t50 69.5t72.5 46t84 16.5t84 -16.5t72.5 -46t50 -69.5t18.5 -85q0 -47 -18.5 -87t-50 -69.5t-72.5 -46t-84 -16.5t-84 16.5t-72.5 46t-50 69.5t-18.5 87zM418 1323q0 -41 24.5 -72.5t69.5 -31.5t69.5 31.5t24.5 72.5t-24.5 71.5t-69.5 30.5 t-69.5 -30.5t-24.5 -71.5z" />
<glyph unicode="&#x2dc;" horiz-adv-x="1024" d="M156 1237q14 25 36.5 52.5t52 50t65.5 37t77 14.5q47 0 79 -11.5t57.5 -25t50 -24.5t55.5 -11q43 0 71.5 23.5t42.5 39.5l125 -108q-16 -27 -38.5 -54.5t-52 -50t-65.5 -37t-79 -14.5q-47 0 -78 11.5t-57.5 24.5t-51 24.5t-55.5 11.5q-37 0 -65.5 -22.5t-44.5 -39.5z" />
<glyph unicode="&#x3bc;" horiz-adv-x="1138" d="M125 -446v1443h272v-649q0 -66 24.5 -105.5t96.5 -39.5q37 0 71 13t61.5 32.5t49 41t35.5 38.5v669h273v-714q0 -90 7 -165t17 -118h-268q-6 18 -12.5 60t-8.5 73q-18 -20 -42.5 -45t-56.5 -46.5t-72 -37.5t-89 -20q-25 -2 -50 1t-44 11h-6q4 -20 6 -73.5t2 -131.5v-237 h-266z" />
<glyph unicode="&#x2000;" horiz-adv-x="940" />
<glyph unicode="&#x2001;" horiz-adv-x="1880" />
<glyph unicode="&#x2002;" horiz-adv-x="940" />
<glyph unicode="&#x2003;" horiz-adv-x="1880" />
<glyph unicode="&#x2004;" horiz-adv-x="626" />
<glyph unicode="&#x2005;" horiz-adv-x="468" />
<glyph unicode="&#x2006;" horiz-adv-x="313" />
<glyph unicode="&#x2007;" horiz-adv-x="313" />
<glyph unicode="&#x2008;" horiz-adv-x="233" />
<glyph unicode="&#x2009;" horiz-adv-x="374" />
<glyph unicode="&#x200a;" horiz-adv-x="104" />
<glyph unicode="&#x2010;" horiz-adv-x="675" d="M104 467v221h467v-221h-467z" />
<glyph unicode="&#x2011;" horiz-adv-x="675" d="M104 467v221h467v-221h-467z" />
<glyph unicode="&#x2012;" horiz-adv-x="675" d="M104 467v221h467v-221h-467z" />
<glyph unicode="&#x2013;" horiz-adv-x="1126" d="M98 444v211h930v-211h-930z" />
<glyph unicode="&#x2014;" horiz-adv-x="1781" d="M98 444v211h1585v-211h-1585z" />
<glyph unicode="&#x2018;" horiz-adv-x="460" d="M61 997q0 51 14.5 104.5t36 101.5t47 90t48.5 71h170q-27 -35 -51.5 -88t-24.5 -105q0 -39 16.5 -62.5t36 -45t36 -48t16.5 -71.5q0 -66 -46.5 -106.5t-111.5 -40.5q-76 0 -131.5 53t-55.5 147z" />
<glyph unicode="&#x2019;" horiz-adv-x="460" d="M55 1243q0 66 46 106t114 40q74 0 130 -53.5t56 -147.5q0 -53 -14 -105.5t-35.5 -100.5t-48.5 -90t-49 -71h-168q25 35 50.5 88.5t25.5 106.5q0 39 -16.5 62.5t-37 45t-37 48t-16.5 71.5z" />
<glyph unicode="&#x201a;" horiz-adv-x="518" d="M84 164q0 66 46 105.5t114 39.5q74 0 130 -52t56 -146q0 -53 -14.5 -105.5t-36 -101.5t-48 -90t-48.5 -70h-168q25 35 50 88t25 105q0 39 -16 62.5t-36.5 45t-37 48t-16.5 71.5z" />
<glyph unicode="&#x201c;" horiz-adv-x="890" d="M51 997q0 51 14.5 104.5t36 101.5t48 90t49.5 71h168q-25 -35 -50.5 -88t-25.5 -105q0 -39 16.5 -62.5t37 -45t36.5 -48t16 -71.5q0 -66 -46 -106.5t-113 -40.5q-74 0 -130.5 53t-56.5 147zM489 997q0 51 14.5 104.5t36 101.5t48 90t49.5 71h168q-25 -35 -50.5 -88 t-25.5 -105q0 -39 16.5 -62.5t37 -45t37 -48t16.5 -71.5q0 -66 -46.5 -106.5t-111.5 -40.5q-76 0 -132.5 53t-56.5 147z" />
<glyph unicode="&#x201d;" horiz-adv-x="890" d="M55 1243q0 66 46 106t114 40q74 0 130 -53.5t56 -147.5q0 -53 -14 -105.5t-35.5 -100.5t-48.5 -90t-49 -71h-168q25 35 50.5 88.5t25.5 106.5q0 39 -16.5 62.5t-37 45t-37 48t-16.5 71.5zM494 1243q0 66 46 106t113 40q74 0 130.5 -53.5t56.5 -147.5q0 -53 -14.5 -105.5 t-36 -100.5t-47 -90t-48.5 -71h-170q25 35 50.5 88.5t25.5 106.5q0 39 -16.5 62.5t-37 45t-36.5 48t-16 71.5z" />
<glyph unicode="&#x201e;" horiz-adv-x="901" d="M55 164q0 66 46 105.5t114 39.5q74 0 130 -52t56 -146q0 -53 -14 -105.5t-35.5 -101.5t-48.5 -90t-49 -70h-168q25 35 50.5 88t25.5 105q0 39 -16.5 62.5t-37 45t-37 48t-16.5 71.5zM494 164q0 66 46 105.5t113 39.5q74 0 130.5 -52t56.5 -146q0 -53 -14.5 -105.5 t-36 -101.5t-47 -90t-48.5 -70h-170q25 35 50.5 88t25.5 105q0 39 -16.5 62.5t-37 45t-36.5 48t-16 71.5z" />
<glyph unicode="&#x2022;" horiz-adv-x="897" d="M86 588q0 76 28.5 141.5t78 114.5t116 77.5t140.5 28.5q76 0 141 -28.5t114.5 -77.5t78 -114.5t28.5 -141.5q0 -74 -28.5 -139.5t-78 -114.5t-115 -78t-140.5 -29q-74 0 -140.5 29t-116 78t-78 114.5t-28.5 139.5z" />
<glyph unicode="&#x2026;" horiz-adv-x="1554" d="M111 156q0 37 14 67.5t38.5 54t57.5 37t70 13.5t69.5 -13.5t57 -37t39 -54t14.5 -67.5q0 -74 -52 -125t-128 -51t-128 51t-52 125zM598 156q0 72 52 122t126 50q78 0 129 -50.5t51 -121.5q0 -74 -51 -125t-129 -51q-74 0 -126 51t-52 125zM1083 156q0 37 14.5 67.5t39 54 t57.5 37t70 13.5t69.5 -13.5t57 -37t39 -54t14.5 -67.5q0 -74 -52.5 -125t-127.5 -51q-74 0 -127.5 51t-53.5 125z" />
<glyph unicode="&#x202f;" horiz-adv-x="374" />
<glyph unicode="&#x2039;" horiz-adv-x="655" d="M66 502l245 395h287l-244 -395l244 -393h-287z" />
<glyph unicode="&#x203a;" horiz-adv-x="655" d="M57 109l246 395l-246 393h287l246 -393l-246 -395h-287z" />
<glyph unicode="&#x205f;" horiz-adv-x="468" />
<glyph unicode="&#x20ac;" horiz-adv-x="1202" d="M70 428v188h120q-2 16 -2 33v84h-118v189h145q25 106 75 192t123.5 147.5t171 94.5t216.5 33q70 0 124 -6.5t97 -18.5t77 -28.5t62 -35.5l-114 -213q-35 20 -89.5 43t-150.5 23q-113 0 -185.5 -61.5t-107.5 -169.5h326v-189h-357v-80q0 -18 2 -37h355v-188h-320 q37 -104 109.5 -159.5t177.5 -55.5q96 0 155.5 27.5t100.5 56.5l113 -205q-25 -18 -59 -38.5t-79 -38t-105.5 -29t-135.5 -11.5q-102 0 -194.5 27t-168.5 82t-132 140t-85 204h-147z" />
<glyph unicode="&#x2122;" horiz-adv-x="1513" d="M68 1225v139h524v-139h-176v-467h-170v467h-178zM637 758l82 606h170l108 -297q16 -43 25.5 -81t9.5 -42h4q2 4 12.5 41t26.5 82l107 297h174l80 -606h-174l-27 264q-4 37 -5 69.5t-1 36.5h-4q0 -4 -8.5 -39.5t-24.5 -84.5l-90 -246h-150l-82 243q-16 43 -25 83t-11 44 h-5q0 -4 -2 -33.5t-6 -74.5l-28 -262h-156z" />
<glyph unicode="&#xe000;" horiz-adv-x="995" d="M0 995h995v-995h-995v995z" />
<glyph unicode="&#xfb01;" horiz-adv-x="1216" d="M35 795v202h149v101q0 186 118 293.5t327 107.5q74 0 131 -8t101 -21.5t77 -29t57 -29.5l-96 -201q-35 20 -91 43t-146 23q-98 0 -151.5 -48t-53.5 -153v-78h610v-997h-272v795h-338v-795h-273v795h-149z" />
<glyph unicode="&#xfb02;" horiz-adv-x="1226" d="M35 795v202h149v103q0 188 120 293.5t355 105.5q135 0 248 -19.5t172 -41.5v-1438h-272v1253q-18 8 -60 15.5t-106 7.5q-96 0 -140 -51t-44 -150v-78h209v-202h-209v-795h-273v795h-149z" />
<glyph unicode="&#xfb03;" horiz-adv-x="1810" d="M35 795v202h153v95q0 178 110 286.5t310 108.5q66 0 115 -7t86 -19.5t64.5 -27t50.5 -26.5q117 92 305 92q74 0 131 -8t101 -21.5t77 -29t57 -29.5l-96 -201q-35 20 -91 43t-146 23q-98 0 -151.5 -48t-53.5 -153v-78h604v-997h-272v795h-332v-795h-271v795h-325v-795 h-273v795h-153zM461 997h325v101q0 31 3.5 58.5t13.5 55.5q-23 16 -59.5 33t-102.5 17q-86 0 -133 -45.5t-47 -159.5v-60z" />
<glyph unicode="&#xfb04;" horiz-adv-x="1826" d="M35 795v202h153v95q0 178 110 286.5t310 108.5q63 0 112.5 -7t86.5 -19.5t63.5 -27t49.5 -28.5q123 94 340 94q135 0 247.5 -19.5t171.5 -41.5v-1438h-272v1253q-18 8 -60 15.5t-106 7.5q-96 0 -140 -51t-44 -150v-78h217v-202h-217v-795h-271v795h-325v-795h-273v795 h-153zM461 997h325v103q0 66 15 114q-20 16 -57 32t-103 16q-86 0 -133 -45.5t-47 -159.5v-60z" />
</font>
</defs>
</svg>
